<?xml version="1.0" encoding="UTF-8" standalone="no"?>
<!DOCTYPE svg PUBLIC "-//W3C//DTD SVG 1.1//EN" "http://www.w3.org/Graphics/SVG/1.1/DTD/svg11.dtd">
<svg width="100%" height="100%" viewBox="0 0 1920 1080" version="1.1" xmlns="http://www.w3.org/2000/svg" xmlns:xlink="http://www.w3.org/1999/xlink" xml:space="preserve" xmlns:serif="http://www.serif.com/" style="fill-rule:evenodd;clip-rule:evenodd;stroke-linejoin:round;stroke-miterlimit:2;">
    <g transform="matrix(0.442439,0,0,0.442439,1.45933,267.802)">
        <g transform="matrix(287.163,0,0,287.163,158.522,334.668)">
            <path d="M0.569,-0.635L0.341,-0.635L0.341,-0L0.245,-0L0.245,-0.635L0.017,-0.635L0.017,-0.711L0.569,-0.711L0.569,-0.635Z" style="fill:rgb(255,253,208);fill-rule:nonzero;"/>
        </g>
        <g transform="matrix(287.163,0,0,287.163,326.782,334.668)">
            <path d="M0.625,-0L0.529,-0L0.529,-0.314L0.184,-0.314L0.184,-0L0.088,-0L0.088,-0.711L0.184,-0.711L0.184,-0.39L0.529,-0.39L0.529,-0.711L0.625,-0.711L0.625,-0Z" style="fill:rgb(255,253,208);fill-rule:nonzero;"/>
        </g>
        <g transform="matrix(287.163,0,0,287.163,531.638,334.668)">
            <path d="M0.51,-0.33L0.184,-0.33L0.184,-0.075L0.56,-0.075L0.56,-0L0.088,-0L0.088,-0.711L0.554,-0.711L0.554,-0.635L0.184,-0.635L0.184,-0.405L0.51,-0.405L0.51,-0.33Z" style="fill:rgb(255,253,208);fill-rule:nonzero;"/>
        </g>
        <g transform="matrix(287.163,0,0,287.163,770.847,334.668)">
            <path d="M0.184,-0.308L0.184,-0L0.088,-0L0.088,-0.71L0.345,-0.71C0.423,-0.71 0.482,-0.693 0.523,-0.659C0.564,-0.624 0.585,-0.574 0.585,-0.508C0.585,-0.472 0.575,-0.44 0.556,-0.413C0.537,-0.386 0.51,-0.365 0.473,-0.349C0.512,-0.336 0.54,-0.315 0.557,-0.287C0.574,-0.258 0.583,-0.223 0.583,-0.181L0.583,-0.114C0.583,-0.092 0.585,-0.072 0.59,-0.055C0.595,-0.037 0.604,-0.023 0.616,-0.012L0.616,-0L0.517,-0C0.504,-0.011 0.496,-0.027 0.492,-0.049C0.489,-0.07 0.487,-0.092 0.487,-0.115L0.487,-0.18C0.487,-0.219 0.476,-0.25 0.453,-0.273C0.431,-0.296 0.401,-0.308 0.363,-0.308L0.184,-0.308ZM0.184,-0.384L0.335,-0.384C0.39,-0.384 0.429,-0.394 0.453,-0.415C0.477,-0.435 0.489,-0.467 0.489,-0.509C0.489,-0.549 0.477,-0.58 0.454,-0.602C0.431,-0.624 0.394,-0.635 0.345,-0.635L0.184,-0.635L0.184,-0.384Z" style="fill:rgb(255,253,208);fill-rule:nonzero;"/>
        </g>
        <g transform="matrix(287.163,0,0,287.163,961.121,334.668)">
            <path d="M0.626,-0.292C0.626,-0.205 0.599,-0.133 0.545,-0.076C0.491,-0.018 0.421,0.01 0.335,0.01C0.252,0.01 0.185,-0.018 0.133,-0.076C0.081,-0.133 0.055,-0.205 0.055,-0.292L0.055,-0.418C0.055,-0.505 0.081,-0.577 0.133,-0.635C0.185,-0.692 0.252,-0.721 0.335,-0.721C0.421,-0.721 0.491,-0.692 0.545,-0.635C0.599,-0.578 0.626,-0.505 0.626,-0.418L0.626,-0.292ZM0.53,-0.419C0.53,-0.485 0.512,-0.538 0.477,-0.58C0.442,-0.621 0.395,-0.642 0.335,-0.642C0.279,-0.642 0.235,-0.621 0.201,-0.58C0.168,-0.538 0.151,-0.485 0.151,-0.419L0.151,-0.292C0.151,-0.226 0.168,-0.173 0.201,-0.131C0.235,-0.089 0.279,-0.068 0.335,-0.068C0.395,-0.068 0.442,-0.089 0.477,-0.131C0.512,-0.172 0.53,-0.226 0.53,-0.292L0.53,-0.419Z" style="fill:rgb(255,253,208);fill-rule:nonzero;"/>
        </g>
        <g transform="matrix(287.163,0,0,287.163,1153.92,334.668)">
            <path d="M0.473,-0.183L0.175,-0.183L0.108,-0L0.01,-0L0.285,-0.711L0.367,-0.711L0.638,-0L0.54,-0L0.473,-0.183ZM0.205,-0.264L0.444,-0.264L0.327,-0.587L0.324,-0.587L0.205,-0.264Z" style="fill:rgb(255,253,208);fill-rule:nonzero;"/>
        </g>
        <g transform="matrix(287.163,0,0,287.163,1339.85,334.668)">
            <path d="M0.088,-0L0.088,-0.711L0.306,-0.711C0.399,-0.711 0.474,-0.682 0.53,-0.625C0.587,-0.568 0.615,-0.494 0.615,-0.404L0.615,-0.307C0.615,-0.216 0.587,-0.142 0.53,-0.085C0.474,-0.028 0.399,-0 0.306,-0L0.088,-0ZM0.184,-0.635L0.184,-0.075L0.306,-0.075C0.372,-0.075 0.424,-0.097 0.462,-0.14C0.5,-0.183 0.519,-0.239 0.519,-0.307L0.519,-0.405C0.519,-0.472 0.5,-0.527 0.462,-0.57C0.424,-0.614 0.372,-0.635 0.306,-0.635L0.184,-0.635Z" style="fill:rgb(255,253,208);fill-rule:nonzero;"/>
        </g>
        <g transform="matrix(287.163,0,0,287.163,1600.37,334.668)">
            <path d="M0.569,-0.635L0.341,-0.635L0.341,-0L0.245,-0L0.245,-0.635L0.017,-0.635L0.017,-0.711L0.569,-0.711L0.569,-0.635Z" style="fill:rgb(255,253,208);fill-rule:nonzero;"/>
        </g>
        <g transform="matrix(287.163,0,0,287.163,1764.7,334.668)">
            <path d="M0.626,-0.292C0.626,-0.205 0.599,-0.133 0.545,-0.076C0.491,-0.018 0.421,0.01 0.335,0.01C0.252,0.01 0.185,-0.018 0.133,-0.076C0.081,-0.133 0.055,-0.205 0.055,-0.292L0.055,-0.418C0.055,-0.505 0.081,-0.577 0.133,-0.635C0.185,-0.692 0.252,-0.721 0.335,-0.721C0.421,-0.721 0.491,-0.692 0.545,-0.635C0.599,-0.578 0.626,-0.505 0.626,-0.418L0.626,-0.292ZM0.53,-0.419C0.53,-0.485 0.512,-0.538 0.477,-0.58C0.442,-0.621 0.395,-0.642 0.335,-0.642C0.279,-0.642 0.235,-0.621 0.201,-0.58C0.168,-0.538 0.151,-0.485 0.151,-0.419L0.151,-0.292C0.151,-0.226 0.168,-0.173 0.201,-0.131C0.235,-0.089 0.279,-0.068 0.335,-0.068C0.395,-0.068 0.442,-0.089 0.477,-0.131C0.512,-0.172 0.53,-0.226 0.53,-0.292L0.53,-0.419Z" style="fill:rgb(255,253,208);fill-rule:nonzero;"/>
        </g>
    </g>
    <g transform="matrix(1.11313,0,0,1.11313,-103.375,379.638)">
        <g transform="matrix(287.163,0,0,287.163,158.522,334.668)">
            <path d="M0.335,-0.422L0.3,-0.199L0.288,-0.199L0.253,-0.422L0.178,-0.945L0.002,-0.945L0.165,-0L0.418,-0L0.582,-0.946L0.406,-0.946L0.335,-0.422Z" style="fill:rgb(255,253,208);fill-rule:nonzero;"/>
        </g>
        <g transform="matrix(287.163,0,0,287.163,325.52,334.668)">
            <rect x="0.074" y="-0.945" width="0.167" height="0.945" style="fill:rgb(255,253,208);fill-rule:nonzero;"/>
        </g>
        <g transform="matrix(287.163,0,0,287.163,415.96,334.668)">
            <path d="M0.554,-0.751C0.554,-0.812 0.533,-0.861 0.491,-0.899C0.449,-0.937 0.389,-0.955 0.311,-0.955C0.23,-0.955 0.169,-0.934 0.127,-0.892C0.085,-0.85 0.064,-0.798 0.064,-0.737L0.064,-0.649C0.064,-0.59 0.077,-0.543 0.103,-0.51C0.129,-0.477 0.17,-0.451 0.225,-0.433L0.321,-0.402C0.372,-0.385 0.398,-0.354 0.398,-0.311L0.398,-0.214C0.398,-0.191 0.391,-0.172 0.376,-0.157C0.361,-0.142 0.342,-0.134 0.317,-0.134C0.264,-0.134 0.235,-0.17 0.235,-0.219L0.235,-0.322L0.068,-0.322L0.068,-0.203C0.068,-0.138 0.09,-0.085 0.134,-0.047C0.179,-0.008 0.239,0.011 0.317,0.011C0.393,0.011 0.453,-0.01 0.499,-0.054C0.544,-0.097 0.567,-0.154 0.567,-0.226L0.567,-0.328C0.567,-0.392 0.552,-0.44 0.522,-0.473C0.493,-0.505 0.447,-0.532 0.386,-0.554L0.295,-0.585C0.248,-0.603 0.231,-0.621 0.231,-0.664L0.231,-0.743C0.231,-0.782 0.259,-0.81 0.308,-0.81C0.362,-0.81 0.389,-0.784 0.389,-0.732L0.389,-0.649L0.554,-0.649L0.554,-0.751Z" style="fill:rgb(255,253,208);fill-rule:nonzero;"/>
        </g>
        <g transform="matrix(287.163,0,0,287.163,593.614,334.668)">
            <rect x="0.074" y="-0.945" width="0.167" height="0.945" style="fill:rgb(255,253,208);fill-rule:nonzero;"/>
        </g>
        <g transform="matrix(287.163,0,0,287.163,684.053,334.668)">
            <path d="M0.312,-0.955C0.232,-0.955 0.17,-0.932 0.127,-0.884C0.083,-0.837 0.062,-0.771 0.062,-0.685L0.062,-0.26C0.062,-0.174 0.083,-0.107 0.126,-0.06C0.169,-0.013 0.231,0.011 0.312,0.011C0.393,0.011 0.455,-0.013 0.499,-0.06C0.543,-0.107 0.565,-0.174 0.565,-0.26L0.565,-0.685C0.565,-0.771 0.543,-0.837 0.5,-0.884C0.456,-0.932 0.394,-0.955 0.312,-0.955ZM0.396,-0.231C0.396,-0.172 0.363,-0.134 0.314,-0.134C0.265,-0.134 0.231,-0.172 0.231,-0.231L0.231,-0.713C0.231,-0.771 0.264,-0.81 0.315,-0.81C0.364,-0.81 0.396,-0.771 0.396,-0.713L0.396,-0.231Z" style="fill:rgb(255,253,208);fill-rule:nonzero;"/>
        </g>
        <g transform="matrix(287.163,0,0,287.163,864.091,334.668)">
            <path d="M0.409,-0.436L0.257,-0.945L0.074,-0.945L0.074,-0L0.233,-0L0.233,-0.356L0.227,-0.571L0.236,-0.571L0.407,-0L0.571,-0L0.571,-0.945L0.413,-0.945L0.413,-0.678L0.419,-0.436L0.409,-0.436Z" style="fill:rgb(255,253,208);fill-rule:nonzero;"/>
        </g>
        <g transform="matrix(287.163,0,0,287.163,1105.96,334.668)">
            <path d="M0.491,-0.813L0.492,-0.945L0.039,-0.945L0.039,-0.802L0.305,-0.802L0.037,-0.128L0.037,-0L0.508,-0L0.508,-0.143L0.23,-0.143L0.491,-0.813Z" style="fill:rgb(255,253,208);fill-rule:nonzero;"/>
        </g>
        <g transform="matrix(287.163,0,0,287.163,1261.89,334.668)">
            <path d="M0.241,-0.413L0.451,-0.413L0.451,-0.554L0.241,-0.554L0.241,-0.802L0.471,-0.802L0.471,-0.945L0.074,-0.945L0.074,-0L0.474,-0L0.474,-0.143L0.241,-0.143L0.241,-0.413Z" style="fill:rgb(255,253,208);fill-rule:nonzero;"/>
        </g>
        <g transform="matrix(287.163,0,0,287.163,1411.5,334.668)">
            <path d="M0.492,-0.397C0.542,-0.443 0.567,-0.506 0.567,-0.585L0.567,-0.702C0.567,-0.86 0.478,-0.945 0.324,-0.945L0.074,-0.945L0.074,-0L0.241,-0L0.241,-0.328L0.35,-0.328L0.42,-0L0.588,-0L0.492,-0.397ZM0.243,-0.802L0.296,-0.802C0.362,-0.802 0.397,-0.764 0.397,-0.692L0.397,-0.578C0.397,-0.504 0.363,-0.468 0.296,-0.468L0.243,-0.468L0.243,-0.802Z" style="fill:rgb(255,253,208);fill-rule:nonzero;"/>
        </g>
        <g transform="matrix(287.163,0,0,287.163,1589.29,334.668)">
            <path d="M0.312,-0.955C0.232,-0.955 0.17,-0.932 0.127,-0.884C0.083,-0.837 0.062,-0.771 0.062,-0.685L0.062,-0.26C0.062,-0.174 0.083,-0.107 0.126,-0.06C0.169,-0.013 0.231,0.011 0.312,0.011C0.393,0.011 0.455,-0.013 0.499,-0.06C0.543,-0.107 0.565,-0.174 0.565,-0.26L0.565,-0.685C0.565,-0.771 0.543,-0.837 0.5,-0.884C0.456,-0.932 0.394,-0.955 0.312,-0.955ZM0.396,-0.231C0.396,-0.172 0.363,-0.134 0.314,-0.134C0.265,-0.134 0.231,-0.172 0.231,-0.231L0.231,-0.713C0.231,-0.771 0.264,-0.81 0.315,-0.81C0.364,-0.81 0.396,-0.771 0.396,-0.713L0.396,-0.231Z" style="fill:rgb(255,253,208);fill-rule:nonzero;"/>
        </g>
    </g>
</svg>
