<?xml version="1.0" encoding="UTF-8" standalone="no"?>
<!DOCTYPE svg PUBLIC "-//W3C//DTD SVG 1.1//EN" "http://www.w3.org/Graphics/SVG/1.1/DTD/svg11.dtd">
<svg width="100%" height="100%" viewBox="0 0 819 607" version="1.1" xmlns="http://www.w3.org/2000/svg" xmlns:xlink="http://www.w3.org/1999/xlink" xml:space="preserve" xmlns:serif="http://www.serif.com/" style="fill-rule:evenodd;clip-rule:evenodd;stroke-linejoin:round;stroke-miterlimit:2;">
    <g transform="matrix(1,0,0,1,52.21,468.46)">
        <g transform="matrix(500,0,0,500,0,0)">
            <path d="M0.19,-0.26L0.458,-0.26C0.485,-0.253 0.505,-0.229 0.505,-0.201C0.505,-0.173 0.486,-0.149 0.459,-0.142L0.19,-0.142L0.19,-0.26ZM0.62,-0.299C0.609,-0.318 0.594,-0.336 0.577,-0.351C0.575,-0.353 0.573,-0.355 0.57,-0.357C0.571,-0.359 0.572,-0.361 0.573,-0.362L0.573,-0.362L0.574,-0.364C0.591,-0.394 0.6,-0.428 0.6,-0.462C0.6,-0.496 0.591,-0.53 0.575,-0.559C0.574,-0.56 0.573,-0.561 0.573,-0.562C0.537,-0.624 0.47,-0.663 0.399,-0.663L0.05,-0.663L0.05,-0.52L0.19,-0.52L0.19,-0.52L0.414,-0.52C0.44,-0.513 0.459,-0.489 0.459,-0.462C0.459,-0.433 0.439,-0.409 0.411,-0.403L0.05,-0.403L0.05,0L0.399,0C0.406,0 0.414,-0 0.422,-0.001C0.429,-0 0.437,0 0.444,0C0.517,0 0.584,-0.04 0.62,-0.103C0.636,-0.133 0.645,-0.167 0.645,-0.201C0.645,-0.235 0.636,-0.269 0.62,-0.299Z" style="fill-rule:nonzero;"/>
        </g>
        <g transform="matrix(500,0,0,500,348,0)">
            <path d="M0.19,-0.661L0.05,-0.661L0.05,-0.364L0.19,-0.505L0.19,-0.661ZM0.638,-0.045L0.352,-0.33L0.683,-0.661L0.484,-0.661L0.276,-0.452L0.276,-0.452L0.05,-0.226L0.05,0L0.19,0L0.19,-0.168L0.253,-0.231L0.477,-0.008L0.484,0L0.683,0L0.638,-0.045Z" style="fill-rule:nonzero;"/>
        </g>
    </g>
</svg>
