<?xml version="1.0" encoding="UTF-8" standalone="no"?>
<!DOCTYPE svg PUBLIC "-//W3C//DTD SVG 1.1//EN" "http://www.w3.org/Graphics/SVG/1.1/DTD/svg11.dtd">
<svg width="100%" height="100%" viewBox="0 0 1152 266" version="1.1" xmlns="http://www.w3.org/2000/svg" xmlns:xlink="http://www.w3.org/1999/xlink" xml:space="preserve" xmlns:serif="http://www.serif.com/" style="fill-rule:evenodd;clip-rule:evenodd;stroke-linejoin:round;stroke-miterlimit:2;">
    <g transform="matrix(1,0,0,1,8.38,192.04)">
        <g transform="matrix(180,0,0,180,0,0)">
            <path d="M0.19,-0.26L0.458,-0.26C0.485,-0.253 0.505,-0.229 0.505,-0.201C0.505,-0.173 0.486,-0.149 0.459,-0.142L0.19,-0.142L0.19,-0.26ZM0.62,-0.299C0.609,-0.318 0.594,-0.336 0.577,-0.351C0.575,-0.353 0.573,-0.355 0.57,-0.357C0.571,-0.359 0.572,-0.361 0.573,-0.362L0.573,-0.362L0.574,-0.364C0.591,-0.394 0.6,-0.428 0.6,-0.462C0.6,-0.496 0.591,-0.53 0.575,-0.559C0.574,-0.56 0.573,-0.561 0.573,-0.562C0.537,-0.624 0.47,-0.663 0.399,-0.663L0.05,-0.663L0.05,-0.52L0.19,-0.52L0.19,-0.52L0.414,-0.52C0.44,-0.513 0.459,-0.489 0.459,-0.462C0.459,-0.433 0.439,-0.409 0.411,-0.403L0.05,-0.403L0.05,0L0.399,0C0.406,0 0.414,-0 0.422,-0.001C0.429,-0 0.437,0 0.444,0C0.517,0 0.584,-0.04 0.62,-0.103C0.636,-0.133 0.645,-0.167 0.645,-0.201C0.645,-0.235 0.636,-0.269 0.62,-0.299Z" style="fill:white;fill-rule:nonzero;"/>
        </g>
        <g transform="matrix(180,0,0,180,125.28,0)">
            <path d="M0.05,-0.661L0.05,-0.634L0.05,-0.52L0.64,-0.52L0.64,-0.661L0.05,-0.661ZM0.19,-0.282L0.581,-0.282L0.581,-0.423L0.19,-0.423L0.05,-0.423L0.05,-0.14L0.05,-0.114L0.05,-0L0.64,-0L0.64,-0.14L0.19,-0.14L0.19,-0.282Z" style="fill:white;fill-rule:nonzero;"/>
        </g>
        <g transform="matrix(180,0,0,180,249.48,0)">
            <path d="M0.05,-0.001L0.19,-0.001L0.19,-0.223L0.05,-0.363L0.05,-0.001ZM0.445,-0.662L0.445,-0.305L0.085,-0.665L0.05,-0.665L0.05,-0.585L0.05,-0.502L0.19,-0.361L0.286,-0.265L0.453,-0.099L0.552,-0L0.585,-0L0.585,-0.662L0.445,-0.662Z" style="fill:white;fill-rule:nonzero;"/>
        </g>
        <g transform="matrix(180,0,0,180,441.54,0)">
            <path d="M0.19,-0.661L0.05,-0.661L0.05,-0.364L0.19,-0.505L0.19,-0.661ZM0.638,-0.045L0.352,-0.33L0.683,-0.661L0.484,-0.661L0.276,-0.452L0.276,-0.452L0.05,-0.226L0.05,0L0.19,0L0.19,-0.168L0.253,-0.231L0.477,-0.008L0.484,0L0.683,0L0.638,-0.045Z" style="fill:white;fill-rule:nonzero;"/>
        </g>
        <g transform="matrix(180,0,0,180,573.48,0)">
            <path d="M0.504,-0.661L0.504,-0.299C0.504,-0.214 0.437,-0.143 0.353,-0.14L0.342,-0.14C0.258,-0.143 0.19,-0.214 0.19,-0.299L0.19,-0.661L0.05,-0.661L0.05,-0.248C0.05,-0.195 0.069,-0.144 0.105,-0.106C0.118,-0.092 0.133,-0.079 0.148,-0.067C0.206,-0.023 0.275,0 0.348,0C0.42,0 0.489,-0.023 0.547,-0.067C0.562,-0.078 0.577,-0.091 0.59,-0.106C0.625,-0.144 0.645,-0.194 0.645,-0.248L0.645,-0.661L0.504,-0.661Z" style="fill:white;fill-rule:nonzero;"/>
        </g>
        <g transform="matrix(180,0,0,180,698.58,0)">
            <path d="M0.665,-0.04L0.475,-0.35L0.486,-0.358C0.488,-0.36 0.49,-0.361 0.492,-0.363C0.492,-0.363 0.492,-0.363 0.492,-0.364C0.494,-0.365 0.495,-0.366 0.497,-0.367C0.501,-0.371 0.505,-0.375 0.509,-0.379C0.555,-0.424 0.586,-0.481 0.6,-0.543C0.605,-0.566 0.608,-0.59 0.608,-0.615C0.608,-0.622 0.607,-0.63 0.607,-0.638L0.605,-0.662L0.05,-0.662L0.05,-0.522L0.351,-0.522L0.351,-0.522L0.443,-0.522C0.435,-0.506 0.424,-0.492 0.411,-0.479C0.394,-0.462 0.374,-0.449 0.353,-0.44C0.352,-0.44 0.351,-0.439 0.351,-0.439C0.327,-0.429 0.303,-0.424 0.277,-0.424L0.05,-0.424L0.05,0L0.19,0L0.19,-0.284L0.277,-0.284L0.284,-0.284L0.302,-0.285L0.32,-0.287L0.334,-0.289C0.338,-0.29 0.343,-0.29 0.347,-0.291L0.517,-0.013L0.525,-0L0.689,-0L0.665,-0.04Z" style="fill:white;fill-rule:nonzero;"/>
        </g>
        <g transform="matrix(1,0,0,1,831.59,0)">
            <g transform="matrix(180,0,0,180,0,0)">
                <rect x="0.05" y="-0.662" width="0.14" height="0.662" style="fill:white;fill-rule:nonzero;"/>
            </g>
        </g>
        <g transform="matrix(1,0,0,1,868.85,0)">
            <g transform="matrix(180,0,0,180,0,0)">
                <path d="M0.072,-0.039L0.05,-0L0.226,-0L0.377,-0.272L0.288,-0.431L0.072,-0.039ZM0.793,-0.039L0.513,-0.545L0.456,-0.648L0.449,-0.663L0.416,-0.663L0.409,-0.648L0.344,-0.531L0.432,-0.373L0.499,-0.252L0.639,0L0.815,0L0.793,-0.039Z" style="fill:white;fill-rule:nonzero;"/>
            </g>
        </g>
        <g transform="matrix(1,0,0,1,1020.95,0)">
            <g transform="matrix(180,0,0,180,0,0)">
                <path d="M0.05,-0.001L0.19,-0.001L0.19,-0.223L0.05,-0.363L0.05,-0.001ZM0.445,-0.662L0.445,-0.305L0.085,-0.665L0.05,-0.665L0.05,-0.585L0.05,-0.502L0.19,-0.361L0.286,-0.265L0.453,-0.099L0.552,-0L0.585,-0L0.585,-0.662L0.445,-0.662Z" style="fill:white;fill-rule:nonzero;"/>
            </g>
        </g>
    </g>
</svg>
