<?xml version="1.0" encoding="UTF-8" standalone="no"?>
<!DOCTYPE svg PUBLIC "-//W3C//DTD SVG 1.1//EN" "http://www.w3.org/Graphics/SVG/1.1/DTD/svg11.dtd">
<svg width="100%" height="100%" viewBox="0 0 1920 600" version="1.1" xmlns="http://www.w3.org/2000/svg" xmlns:xlink="http://www.w3.org/1999/xlink" xml:space="preserve" xmlns:serif="http://www.serif.com/" style="fill-rule:evenodd;clip-rule:evenodd;stroke-linejoin:round;stroke-miterlimit:2;">
    <g transform="matrix(1.15814,0,0,1.15814,-287.161,-267.225)">
        <g transform="matrix(281.502,0,0,281.502,283.597,575.139)">
            <path d="M0.474,-0.386C0.553,-0.381 0.617,-0.361 0.665,-0.328C0.712,-0.294 0.736,-0.249 0.736,-0.194C0.736,-0.165 0.729,-0.139 0.714,-0.115C0.699,-0.091 0.678,-0.07 0.651,-0.053C0.624,-0.036 0.591,-0.023 0.554,-0.014C0.516,-0.005 0.475,-0 0.43,-0L0.029,-0L0.029,-0.016L0.109,-0.016L0.109,-0.666L0.02,-0.72L0.381,-0.72C0.417,-0.72 0.453,-0.718 0.49,-0.713C0.527,-0.708 0.558,-0.701 0.585,-0.691C0.611,-0.68 0.632,-0.669 0.648,-0.656C0.663,-0.643 0.675,-0.628 0.683,-0.611C0.691,-0.594 0.695,-0.575 0.695,-0.555C0.695,-0.512 0.677,-0.476 0.642,-0.449C0.607,-0.421 0.551,-0.4 0.474,-0.386ZM0.345,-0.704L0.329,-0.704L0.329,-0.392L0.347,-0.392C0.426,-0.392 0.465,-0.444 0.465,-0.548C0.465,-0.652 0.425,-0.704 0.345,-0.704ZM0.35,-0.016C0.405,-0.016 0.444,-0.03 0.469,-0.059C0.494,-0.088 0.506,-0.132 0.506,-0.191C0.506,-0.25 0.492,-0.296 0.465,-0.328C0.437,-0.36 0.401,-0.376 0.357,-0.376L0.329,-0.376L0.329,-0.016L0.35,-0.016Z" style="fill-rule:nonzero;"/>
        </g>
        <g transform="matrix(281.502,0,0,281.502,500.634,575.139)">
            <path d="M0.493,-0.091L0.494,-0.09C0.473,-0.058 0.445,-0.033 0.411,-0.016C0.377,0.001 0.337,0.01 0.292,0.01C0.257,0.01 0.224,0.004 0.193,-0.008C0.162,-0.02 0.134,-0.037 0.111,-0.059C0.087,-0.081 0.068,-0.108 0.055,-0.14C0.042,-0.171 0.035,-0.206 0.035,-0.243C0.035,-0.279 0.041,-0.313 0.053,-0.346C0.065,-0.379 0.082,-0.407 0.105,-0.432C0.127,-0.456 0.154,-0.475 0.187,-0.489C0.219,-0.503 0.254,-0.51 0.293,-0.51C0.34,-0.51 0.378,-0.498 0.408,-0.474C0.437,-0.449 0.452,-0.419 0.452,-0.382C0.452,-0.34 0.436,-0.302 0.405,-0.267C0.373,-0.232 0.327,-0.203 0.268,-0.181C0.297,-0.153 0.329,-0.131 0.364,-0.114C0.399,-0.096 0.432,-0.088 0.464,-0.088C0.475,-0.088 0.484,-0.089 0.493,-0.091ZM0.2,-0.475C0.187,-0.475 0.177,-0.47 0.17,-0.459C0.163,-0.448 0.159,-0.434 0.159,-0.416C0.159,-0.377 0.169,-0.337 0.188,-0.296C0.206,-0.255 0.231,-0.219 0.262,-0.187C0.288,-0.22 0.301,-0.263 0.301,-0.314C0.301,-0.344 0.295,-0.372 0.283,-0.398C0.27,-0.423 0.257,-0.443 0.242,-0.456C0.227,-0.468 0.213,-0.475 0.2,-0.475Z" style="fill-rule:nonzero;"/>
        </g>
        <g transform="matrix(281.502,0,0,281.502,642.511,575.139)">
            <path d="M0.589,-0.016L0.639,-0.016L0.639,-0L0.349,-0L0.349,-0.016L0.389,-0.016L0.389,-0.317C0.389,-0.354 0.384,-0.381 0.375,-0.397C0.365,-0.413 0.35,-0.421 0.329,-0.421C0.311,-0.421 0.291,-0.416 0.269,-0.406L0.269,-0.016L0.309,-0.016L0.309,-0L0.019,-0L0.019,-0.016L0.069,-0.016L0.069,-0.381L0.012,-0.43L0.269,-0.52L0.269,-0.42C0.314,-0.459 0.352,-0.485 0.381,-0.497C0.41,-0.509 0.437,-0.515 0.46,-0.515C0.502,-0.515 0.534,-0.502 0.556,-0.476C0.578,-0.449 0.589,-0.411 0.589,-0.36L0.589,-0.016Z" style="fill-rule:nonzero;"/>
        </g>
        <g transform="matrix(281.502,0,0,281.502,888.825,575.139)">
            <path d="M0.329,-0.666L0.329,-0.016L0.404,-0.016L0.404,-0L0.029,-0L0.029,-0.016L0.109,-0.016L0.109,-0.666L0.02,-0.72L0.418,-0.72L0.329,-0.666ZM0.808,-0.016L0.858,-0.016L0.858,-0L0.555,-0L0.339,-0.345L0.6,-0.667L0.511,-0.72L0.824,-0.72L0.489,-0.504L0.808,-0.016Z" style="fill-rule:nonzero;"/>
        </g>
        <g transform="matrix(281.502,0,0,281.502,1120.5,575.139)">
            <path d="M0.57,-0.016L0.62,-0.016L0.62,-0L0.37,-0L0.37,-0.077C0.319,-0.04 0.282,-0.016 0.257,-0.006C0.232,0.006 0.21,0.011 0.191,0.011C0.146,0.011 0.114,-0.003 0.093,-0.03C0.072,-0.057 0.062,-0.101 0.062,-0.16L0.062,-0.375L0.005,-0.424L0.262,-0.514L0.262,-0.2C0.262,-0.156 0.266,-0.126 0.273,-0.109C0.28,-0.092 0.296,-0.083 0.319,-0.083C0.334,-0.083 0.351,-0.086 0.37,-0.093L0.37,-0.38L0.313,-0.429L0.57,-0.519L0.57,-0.016Z" style="fill-rule:nonzero;"/>
        </g>
        <g transform="matrix(281.502,0,0,281.502,1300.1,575.139)">
            <path d="M0.437,-0.511C0.444,-0.511 0.45,-0.51 0.456,-0.508L0.456,-0.243L0.455,-0.243C0.412,-0.291 0.375,-0.326 0.346,-0.349C0.316,-0.372 0.29,-0.381 0.269,-0.378L0.269,-0.016L0.344,-0.016L0.344,-0L0.019,-0L0.019,-0.016L0.069,-0.016L0.069,-0.379L0.012,-0.428L0.269,-0.514L0.269,-0.389C0.297,-0.426 0.326,-0.455 0.357,-0.478C0.388,-0.5 0.414,-0.511 0.437,-0.511Z" style="fill-rule:nonzero;"/>
        </g>
        <g transform="matrix(281.502,0,0,281.502,1435.78,575.139)">
            <path d="M0.169,-0.537C0.134,-0.537 0.107,-0.547 0.088,-0.568C0.068,-0.588 0.058,-0.615 0.058,-0.649C0.058,-0.682 0.068,-0.709 0.088,-0.73C0.107,-0.75 0.134,-0.76 0.169,-0.76C0.194,-0.76 0.216,-0.754 0.234,-0.743C0.252,-0.731 0.264,-0.716 0.271,-0.699C0.277,-0.681 0.28,-0.664 0.28,-0.649C0.28,-0.615 0.27,-0.588 0.251,-0.568C0.231,-0.547 0.204,-0.537 0.169,-0.537ZM0.019,-0L0.019,-0.016L0.069,-0.016L0.069,-0.381L0.012,-0.43L0.269,-0.52L0.269,-0.016L0.319,-0.016L0.319,-0L0.019,-0Z" style="fill-rule:nonzero;"/>
        </g>
        <g transform="matrix(281.502,0,0,281.502,1530.65,575.139)">
            <path d="M0.479,-0.016L0.529,-0.016L0.529,-0L0.279,-0L0.279,-0.057C0.226,-0.012 0.175,0.01 0.124,0.01C0.109,0.01 0.093,0.007 0.076,0.002C0.058,-0.004 0.044,-0.015 0.033,-0.032C0.021,-0.048 0.015,-0.067 0.015,-0.09C0.015,-0.135 0.038,-0.173 0.085,-0.203C0.131,-0.232 0.196,-0.252 0.279,-0.261C0.279,-0.315 0.269,-0.356 0.248,-0.384C0.227,-0.412 0.198,-0.426 0.159,-0.426C0.136,-0.426 0.116,-0.423 0.099,-0.416C0.082,-0.409 0.065,-0.4 0.049,-0.388L0.044,-0.393C0.079,-0.432 0.116,-0.461 0.155,-0.481C0.194,-0.5 0.238,-0.51 0.286,-0.51C0.349,-0.51 0.397,-0.492 0.43,-0.456C0.463,-0.419 0.479,-0.365 0.479,-0.293L0.479,-0.016ZM0.256,-0.068L0.279,-0.071L0.279,-0.248C0.224,-0.232 0.196,-0.196 0.196,-0.14C0.196,-0.117 0.201,-0.099 0.212,-0.087C0.222,-0.074 0.237,-0.068 0.256,-0.068Z" style="fill-rule:nonzero;"/>
        </g>
        <g transform="matrix(281.502,0,0,281.502,1684.63,575.139)">
            <path d="M0.589,-0.016L0.639,-0.016L0.639,-0L0.349,-0L0.349,-0.016L0.389,-0.016L0.389,-0.317C0.389,-0.354 0.384,-0.381 0.375,-0.397C0.365,-0.413 0.35,-0.421 0.329,-0.421C0.311,-0.421 0.291,-0.416 0.269,-0.406L0.269,-0.016L0.309,-0.016L0.309,-0L0.019,-0L0.019,-0.016L0.069,-0.016L0.069,-0.381L0.012,-0.43L0.269,-0.52L0.269,-0.42C0.314,-0.459 0.352,-0.485 0.381,-0.497C0.41,-0.509 0.437,-0.515 0.46,-0.515C0.502,-0.515 0.534,-0.502 0.556,-0.476C0.578,-0.449 0.589,-0.411 0.589,-0.36L0.589,-0.016Z" style="fill-rule:nonzero;"/>
        </g>
    </g>
</svg>
