<?xml version="1.0" encoding="UTF-8" standalone="no"?>
<!DOCTYPE svg PUBLIC "-//W3C//DTD SVG 1.1//EN" "http://www.w3.org/Graphics/SVG/1.1/DTD/svg11.dtd">
<svg width="100%" height="100%" viewBox="0 0 1152 266" version="1.1" xmlns="http://www.w3.org/2000/svg" xmlns:xlink="http://www.w3.org/1999/xlink" xml:space="preserve" xmlns:serif="http://www.serif.com/" style="fill-rule:evenodd;clip-rule:evenodd;stroke-linejoin:round;stroke-miterlimit:2;">
    <g transform="matrix(1,0,0,1,299.34,192.04)">
        <g transform="matrix(180,0,0,180,0,0)">
            <path d="M0.05,-0L0.19,-0L0.19,-0.223L0.05,-0.364L0.05,-0ZM0.614,-0.665L0.35,-0.401L0.218,-0.532L0.085,-0.665L0.05,-0.665L0.05,-0.502L0.19,-0.361L0.255,-0.297L0.35,-0.202L0.43,-0.283L0.505,-0.357L0.505,-0L0.645,-0L0.645,-0.665L0.614,-0.665Z" style="fill:white;fill-rule:nonzero;"/>
        </g>
        <g transform="matrix(1,0,0,1,125.28,0)">
            <g transform="matrix(180,0,0,180,0,0)">
                <path d="M0.504,-0.661L0.504,-0.299C0.504,-0.214 0.437,-0.143 0.353,-0.14L0.342,-0.14C0.258,-0.143 0.19,-0.214 0.19,-0.299L0.19,-0.661L0.05,-0.661L0.05,-0.248C0.05,-0.195 0.069,-0.144 0.105,-0.106C0.118,-0.092 0.133,-0.079 0.148,-0.067C0.206,-0.023 0.275,0 0.348,0C0.42,0 0.489,-0.023 0.547,-0.067C0.562,-0.078 0.577,-0.091 0.59,-0.106C0.625,-0.144 0.645,-0.194 0.645,-0.248L0.645,-0.661L0.504,-0.661Z" style="fill:white;fill-rule:nonzero;"/>
            </g>
        </g>
        <g transform="matrix(1,0,0,1,248.4,0)">
            <g transform="matrix(180,0,0,180,0,0)">
                <path d="M0.44,-0.401L0.25,-0.401C0.217,-0.401 0.19,-0.428 0.19,-0.461C0.19,-0.494 0.217,-0.521 0.25,-0.521L0.47,-0.521C0.491,-0.513 0.506,-0.493 0.506,-0.47L0.644,-0.47C0.644,-0.487 0.641,-0.504 0.637,-0.521C0.615,-0.601 0.54,-0.661 0.452,-0.661L0.25,-0.661C0.179,-0.661 0.112,-0.622 0.076,-0.56C0.059,-0.53 0.05,-0.496 0.05,-0.461C0.05,-0.426 0.059,-0.391 0.076,-0.361C0.084,-0.348 0.093,-0.335 0.104,-0.324C0.141,-0.284 0.194,-0.26 0.25,-0.26L0.44,-0.26C0.473,-0.26 0.5,-0.233 0.5,-0.2C0.5,-0.167 0.473,-0.14 0.44,-0.14L0.224,-0.14C0.203,-0.148 0.187,-0.168 0.187,-0.191L0.05,-0.191C0.05,-0.174 0.052,-0.157 0.057,-0.14C0.079,-0.059 0.153,-0 0.241,-0L0.44,-0C0.512,-0 0.578,-0.039 0.614,-0.101C0.631,-0.131 0.64,-0.165 0.64,-0.2C0.64,-0.235 0.631,-0.27 0.614,-0.3C0.578,-0.362 0.512,-0.401 0.44,-0.401Z" style="fill:white;fill-rule:nonzero;"/>
            </g>
            <g transform="matrix(180,0,0,180,124.92,0)">
                <rect x="0.05" y="-0.662" width="0.14" height="0.662" style="fill:white;fill-rule:nonzero;"/>
            </g>
            <g transform="matrix(180,0,0,180,168.12,0)">
                <path d="M0.561,-0.263L0.554,-0.249C0.522,-0.183 0.454,-0.14 0.381,-0.14C0.291,-0.14 0.213,-0.204 0.194,-0.292C0.192,-0.305 0.19,-0.318 0.19,-0.331C0.19,-0.344 0.192,-0.357 0.194,-0.369C0.212,-0.458 0.291,-0.523 0.381,-0.523C0.458,-0.523 0.527,-0.477 0.557,-0.406L0.564,-0.39L0.71,-0.39L0.7,-0.424C0.68,-0.491 0.639,-0.552 0.582,-0.595C0.524,-0.639 0.455,-0.663 0.381,-0.663C0.301,-0.663 0.224,-0.634 0.163,-0.581C0.103,-0.528 0.064,-0.456 0.053,-0.378C0.051,-0.363 0.05,-0.347 0.05,-0.331C0.05,-0.315 0.051,-0.299 0.054,-0.283C0.065,-0.205 0.104,-0.133 0.164,-0.081C0.224,-0.029 0.301,-0 0.381,-0C0.453,-0 0.521,-0.022 0.578,-0.065C0.634,-0.106 0.675,-0.163 0.697,-0.229L0.708,-0.263L0.561,-0.263Z" style="fill:white;fill-rule:nonzero;"/>
            </g>
        </g>
    </g>
</svg>
