<?xml version="1.0" encoding="UTF-8" standalone="no"?>
<!DOCTYPE svg PUBLIC "-//W3C//DTD SVG 1.1//EN" "http://www.w3.org/Graphics/SVG/1.1/DTD/svg11.dtd">
<svg width="100%" height="100%" viewBox="0 0 1920 1080" version="1.1" xmlns="http://www.w3.org/2000/svg" xmlns:xlink="http://www.w3.org/1999/xlink" xml:space="preserve" xmlns:serif="http://www.serif.com/" style="fill-rule:evenodd;clip-rule:evenodd;stroke-linejoin:round;stroke-miterlimit:2;">
    <g transform="matrix(1.18727,0,0,1.18727,-1091.07,-289.178)">
        <g transform="matrix(528.829,0,0,528.829,918.978,597.65)">
            <path d="M0.335,-0.618L0.167,-0.618C0.165,-0.618 0.153,-0.616 0.153,-0.607L0.153,-0.52C0.153,-0.52 0.154,-0.506 0.165,-0.506L0.211,-0.506C0.218,-0.505 0.23,-0.499 0.23,-0.468L0.23,-0.158C0.23,-0.133 0.205,-0.11 0.183,-0.11L0.139,-0.11C0.12,-0.11 0.119,-0.124 0.119,-0.126L0.119,-0.153C0.119,-0.172 0.132,-0.172 0.132,-0.172L0.143,-0.172C0.152,-0.173 0.153,-0.185 0.153,-0.186L0.153,-0.241C0.153,-0.25 0.142,-0.252 0.14,-0.252L0.014,-0.252C0.013,-0.252 0.001,-0.251 0,-0.242L0,-0.014C0,-0.014 0.001,-0 0.011,-0L0.221,-0C0.291,-0 0.349,-0.057 0.349,-0.128L0.349,-0.607C0.349,-0.616 0.337,-0.618 0.335,-0.618Z" style="fill:white;fill-rule:nonzero;"/>
        </g>
        <g transform="matrix(528.829,0,0,528.829,1132.1,597.65)">
            <path d="M0.221,-0.618L0.128,-0.618C0.057,-0.618 0,-0.561 0,-0.49L0,-0.128C0,-0.057 0.057,-0 0.128,-0L0.221,-0C0.291,-0 0.349,-0.057 0.349,-0.128L0.349,-0.49C0.349,-0.561 0.291,-0.618 0.221,-0.618ZM0.224,-0.149C0.224,-0.129 0.208,-0.112 0.188,-0.112L0.161,-0.112C0.141,-0.112 0.124,-0.129 0.124,-0.149L0.124,-0.469C0.124,-0.489 0.141,-0.506 0.161,-0.506L0.188,-0.506C0.208,-0.506 0.224,-0.489 0.224,-0.469L0.224,-0.149Z" style="fill:white;fill-rule:nonzero;"/>
        </g>
        <g transform="matrix(528.829,0,0,528.829,1336.22,597.65)">
            <path d="M0.414,-0.08L0.394,-0.08C0.388,-0.08 0.383,-0.085 0.383,-0.091L0.383,-0.245C0.383,-0.253 0.38,-0.256 0.377,-0.258L0.355,-0.27C0.348,-0.273 0.347,-0.282 0.352,-0.287C0.371,-0.308 0.383,-0.335 0.383,-0.365L0.383,-0.494C0.383,-0.562 0.327,-0.618 0.259,-0.618L0.011,-0.618C0.005,-0.618 0,-0.613 0,-0.607L0,-0.549C0,-0.543 0.005,-0.538 0.011,-0.538L0.022,-0.538C0.028,-0.538 0.033,-0.533 0.033,-0.527L0.033,-0.091C0.033,-0.085 0.028,-0.08 0.022,-0.08L0.011,-0.08C0.005,-0.08 0,-0.075 0,-0.069L0,-0.011C0,-0.005 0.005,-0 0.011,-0L0.141,-0C0.147,-0 0.152,-0.005 0.152,-0.011L0.152,-0.224C0.152,-0.232 0.161,-0.237 0.168,-0.233L0.258,-0.186C0.261,-0.184 0.264,-0.181 0.264,-0.177L0.264,-0.011C0.264,-0.005 0.269,-0 0.275,-0L0.414,-0C0.42,-0 0.425,-0.005 0.425,-0.011L0.425,-0.069C0.425,-0.075 0.42,-0.08 0.414,-0.08ZM0.269,-0.407C0.269,-0.386 0.252,-0.369 0.232,-0.369L0.163,-0.369C0.157,-0.369 0.152,-0.374 0.152,-0.38L0.152,-0.48C0.152,-0.486 0.157,-0.491 0.163,-0.491L0.232,-0.491C0.252,-0.491 0.269,-0.474 0.269,-0.454L0.269,-0.407Z" style="fill:white;fill-rule:nonzero;"/>
        </g>
        <g transform="matrix(528.829,0,0,528.829,1582.13,597.65)">
            <path d="M0.258,-0.618L0.011,-0.618C0.005,-0.618 0,-0.613 0,-0.607L0,-0.549C0,-0.543 0.005,-0.538 0.011,-0.538L0.022,-0.538C0.028,-0.538 0.033,-0.533 0.033,-0.527L0.033,-0.091C0.033,-0.085 0.028,-0.08 0.022,-0.08L0.011,-0.08C0.005,-0.08 0,-0.075 0,-0.069L0,-0.011C0,-0.005 0.005,-0 0.011,-0L0.258,-0C0.326,-0 0.382,-0.056 0.382,-0.124L0.382,-0.494C0.382,-0.562 0.326,-0.618 0.258,-0.618ZM0.261,-0.16C0.261,-0.133 0.239,-0.112 0.212,-0.112L0.163,-0.112C0.157,-0.112 0.152,-0.117 0.152,-0.123L0.152,-0.492C0.152,-0.498 0.157,-0.503 0.163,-0.503L0.212,-0.503C0.239,-0.503 0.261,-0.481 0.261,-0.454L0.261,-0.16Z" style="fill:white;fill-rule:nonzero;"/>
        </g>
        <g transform="matrix(528.829,0,0,528.829,1810.05,597.65)">
            <path d="M0.385,-0.089L0.285,-0.61C0.284,-0.615 0.279,-0.619 0.274,-0.619L0.148,-0.619C0.142,-0.619 0.137,-0.615 0.136,-0.61L0.036,-0.089C0.035,-0.084 0.031,-0.08 0.025,-0.08L0.011,-0.08C0.005,-0.08 0,-0.075 0,-0.068L0,-0.011C0,-0.005 0.005,-0 0.011,-0L0.129,-0C0.134,-0 0.139,-0.004 0.14,-0.009L0.158,-0.102C0.159,-0.108 0.164,-0.112 0.169,-0.112L0.252,-0.112C0.257,-0.112 0.262,-0.108 0.263,-0.102L0.281,-0.009C0.282,-0.004 0.287,-0 0.292,-0L0.41,-0C0.416,-0 0.421,-0.005 0.421,-0.011L0.421,-0.068C0.421,-0.075 0.416,-0.08 0.41,-0.08L0.396,-0.08C0.391,-0.08 0.386,-0.084 0.385,-0.089ZM0.185,-0.244L0.199,-0.318C0.202,-0.33 0.219,-0.33 0.222,-0.318L0.236,-0.244C0.237,-0.237 0.232,-0.231 0.225,-0.231L0.196,-0.231C0.189,-0.231 0.184,-0.237 0.185,-0.244Z" style="fill:white;fill-rule:nonzero;"/>
        </g>
        <g transform="matrix(528.829,0,0,528.829,2043.27,597.65)">
            <path d="M0.425,-0.548L0.425,-0.609C0.425,-0.614 0.421,-0.618 0.416,-0.618L0.282,-0.618C0.277,-0.618 0.273,-0.614 0.273,-0.609L0.273,-0.369C0.273,-0.358 0.259,-0.356 0.256,-0.366L0.184,-0.612C0.183,-0.615 0.18,-0.618 0.176,-0.618L0.009,-0.618C0.004,-0.618 0,-0.614 0,-0.609L0,-0.548C0,-0.543 0.004,-0.539 0.009,-0.539L0.024,-0.539C0.029,-0.539 0.033,-0.535 0.033,-0.53L0.033,-0.089C0.033,-0.084 0.029,-0.08 0.024,-0.08L0.009,-0.08C0.004,-0.08 0,-0.076 0,-0.071L0,-0.009C0,-0.004 0.004,-0 0.009,-0L0.143,-0C0.148,-0 0.152,-0.004 0.152,-0.009L0.152,-0.25C0.152,-0.261 0.167,-0.263 0.17,-0.253L0.241,-0.006C0.242,-0.003 0.246,-0 0.25,-0L0.416,-0C0.421,-0 0.425,-0.004 0.425,-0.009L0.425,-0.071C0.425,-0.076 0.421,-0.08 0.416,-0.08L0.401,-0.08C0.396,-0.08 0.392,-0.084 0.392,-0.089L0.392,-0.53C0.392,-0.535 0.396,-0.539 0.401,-0.539L0.416,-0.539C0.421,-0.539 0.425,-0.543 0.425,-0.548Z" style="fill:white;fill-rule:nonzero;"/>
        </g>
        <g transform="matrix(528.829,0,0,528.829,2299.22,597.65)">
            <path d="M0.053,-0.506C0.058,-0.506 0.062,-0.51 0.062,-0.516L0.062,-0.608C0.062,-0.614 0.058,-0.618 0.053,-0.618L0.01,-0.618C0.004,-0.618 0,-0.614 0,-0.608L0,-0.516C0,-0.51 0.004,-0.506 0.01,-0.506L0.053,-0.506Z" style="fill:white;fill-rule:nonzero;"/>
        </g>
        <g transform="matrix(528.829,0,0,528.829,2351.57,597.65)">
            <path d="M0.22,-0.364L0.187,-0.364C0.167,-0.364 0.124,-0.363 0.124,-0.4L0.124,-0.466C0.124,-0.486 0.141,-0.503 0.162,-0.503L0.187,-0.503C0.208,-0.503 0.224,-0.486 0.224,-0.466L0.224,-0.429C0.225,-0.426 0.227,-0.416 0.236,-0.416L0.338,-0.416C0.348,-0.416 0.349,-0.429 0.349,-0.43L0.349,-0.489C0.349,-0.56 0.291,-0.618 0.22,-0.618L0.129,-0.618C0.058,-0.618 0,-0.56 0,-0.489L0,-0.378C0,-0.307 0.058,-0.249 0.129,-0.249L0.187,-0.249C0.208,-0.249 0.225,-0.233 0.225,-0.212L0.225,-0.152C0.225,-0.131 0.208,-0.115 0.187,-0.115L0.162,-0.115C0.141,-0.115 0.125,-0.131 0.125,-0.152L0.125,-0.187C0.125,-0.187 0.124,-0.201 0.113,-0.201L0.011,-0.201C0.003,-0.201 0.001,-0.192 0,-0.188L0,-0.129C0,-0.057 0.058,-0 0.129,-0L0.22,-0C0.291,-0 0.349,-0.057 0.349,-0.129L0.349,-0.235C0.349,-0.306 0.291,-0.364 0.22,-0.364Z" style="fill:white;fill-rule:nonzero;"/>
        </g>
        <g transform="matrix(528.829,0,0,528.829,1158.27,1126.48)">
            <path d="M0.22,-0.364L0.187,-0.364C0.167,-0.364 0.124,-0.363 0.124,-0.4L0.124,-0.466C0.124,-0.486 0.141,-0.503 0.162,-0.503L0.187,-0.503C0.208,-0.503 0.224,-0.486 0.224,-0.466L0.224,-0.429C0.225,-0.426 0.227,-0.416 0.236,-0.416L0.338,-0.416C0.348,-0.416 0.349,-0.429 0.349,-0.43L0.349,-0.489C0.349,-0.56 0.291,-0.618 0.22,-0.618L0.129,-0.618C0.058,-0.618 0,-0.56 0,-0.489L0,-0.378C0,-0.307 0.058,-0.249 0.129,-0.249L0.187,-0.249C0.208,-0.249 0.225,-0.233 0.225,-0.212L0.225,-0.152C0.225,-0.131 0.208,-0.115 0.187,-0.115L0.162,-0.115C0.141,-0.115 0.125,-0.131 0.125,-0.152L0.125,-0.187C0.125,-0.187 0.124,-0.201 0.113,-0.201L0.011,-0.201C0.003,-0.201 0.001,-0.192 0,-0.188L0,-0.129C0,-0.057 0.058,-0 0.129,-0L0.22,-0C0.291,-0 0.349,-0.057 0.349,-0.129L0.349,-0.235C0.349,-0.306 0.291,-0.364 0.22,-0.364Z" style="fill:white;fill-rule:nonzero;"/>
        </g>
        <g transform="matrix(528.829,0,0,528.829,1371.92,1126.48)">
            <path d="M0,-0.601L0,-0.467C0,-0.458 0.008,-0.45 0.017,-0.45L0.102,-0.45C0.111,-0.45 0.119,-0.458 0.119,-0.467L0.119,-0.486C0.119,-0.495 0.127,-0.503 0.136,-0.503C0.145,-0.503 0.153,-0.495 0.153,-0.486L0.153,-0.017C0.153,-0.008 0.161,-0 0.17,-0L0.255,-0C0.265,-0 0.272,-0.008 0.272,-0.017L0.272,-0.486C0.272,-0.495 0.28,-0.503 0.289,-0.503C0.299,-0.503 0.306,-0.495 0.306,-0.486L0.306,-0.467C0.306,-0.458 0.314,-0.45 0.323,-0.45L0.408,-0.45C0.418,-0.45 0.425,-0.458 0.425,-0.467L0.425,-0.601C0.425,-0.61 0.418,-0.618 0.408,-0.618L0.017,-0.618C0.008,-0.618 0,-0.61 0,-0.601Z" style="fill:white;fill-rule:nonzero;"/>
        </g>
        <g transform="matrix(528.829,0,0,528.829,1624.17,1126.48)">
            <path d="M0.221,-0.618L0.128,-0.618C0.057,-0.618 0,-0.561 0,-0.49L0,-0.128C0,-0.057 0.057,-0 0.128,-0L0.221,-0C0.291,-0 0.349,-0.057 0.349,-0.128L0.349,-0.49C0.349,-0.561 0.291,-0.618 0.221,-0.618ZM0.224,-0.149C0.224,-0.129 0.208,-0.112 0.188,-0.112L0.161,-0.112C0.141,-0.112 0.124,-0.129 0.124,-0.149L0.124,-0.469C0.124,-0.489 0.141,-0.506 0.161,-0.506L0.188,-0.506C0.208,-0.506 0.224,-0.489 0.224,-0.469L0.224,-0.149Z" style="fill:white;fill-rule:nonzero;"/>
        </g>
        <g transform="matrix(528.829,0,0,528.829,1828.3,1126.48)">
            <path d="M0.414,-0.08L0.394,-0.08C0.388,-0.08 0.383,-0.085 0.383,-0.091L0.383,-0.245C0.383,-0.253 0.38,-0.256 0.377,-0.258L0.355,-0.27C0.348,-0.273 0.347,-0.282 0.352,-0.287C0.371,-0.308 0.383,-0.335 0.383,-0.365L0.383,-0.494C0.383,-0.562 0.327,-0.618 0.259,-0.618L0.011,-0.618C0.005,-0.618 0,-0.613 0,-0.607L0,-0.549C0,-0.543 0.005,-0.538 0.011,-0.538L0.022,-0.538C0.028,-0.538 0.033,-0.533 0.033,-0.527L0.033,-0.091C0.033,-0.085 0.028,-0.08 0.022,-0.08L0.011,-0.08C0.005,-0.08 0,-0.075 0,-0.069L0,-0.011C0,-0.005 0.005,-0 0.011,-0L0.141,-0C0.147,-0 0.152,-0.005 0.152,-0.011L0.152,-0.224C0.152,-0.232 0.161,-0.237 0.168,-0.233L0.258,-0.186C0.261,-0.184 0.264,-0.181 0.264,-0.177L0.264,-0.011C0.264,-0.005 0.269,-0 0.275,-0L0.414,-0C0.42,-0 0.425,-0.005 0.425,-0.011L0.425,-0.069C0.425,-0.075 0.42,-0.08 0.414,-0.08ZM0.269,-0.407C0.269,-0.386 0.252,-0.369 0.232,-0.369L0.163,-0.369C0.157,-0.369 0.152,-0.374 0.152,-0.38L0.152,-0.48C0.152,-0.486 0.157,-0.491 0.163,-0.491L0.232,-0.491C0.252,-0.491 0.269,-0.474 0.269,-0.454L0.269,-0.407Z" style="fill:white;fill-rule:nonzero;"/>
        </g>
        <g transform="matrix(528.829,0,0,528.829,2074.2,1126.48)">
            <path d="M0.42,-0.618L0.284,-0.618C0.281,-0.618 0.279,-0.617 0.278,-0.614L0.218,-0.471C0.216,-0.466 0.209,-0.466 0.207,-0.471L0.147,-0.614C0.146,-0.617 0.144,-0.618 0.142,-0.618L0.006,-0.618C0.003,-0.618 0,-0.615 0,-0.612L0,-0.544C0,-0.541 0.003,-0.538 0.006,-0.538L0.056,-0.538C0.058,-0.538 0.061,-0.537 0.061,-0.535L0.153,-0.318L0.153,-0.006C0.153,-0.003 0.156,-0 0.159,-0L0.266,-0C0.27,-0 0.272,-0.003 0.272,-0.006L0.272,-0.316C0.272,-0.317 0.272,-0.317 0.273,-0.318L0.364,-0.535C0.365,-0.537 0.367,-0.538 0.369,-0.538L0.42,-0.538C0.423,-0.538 0.425,-0.541 0.425,-0.544L0.425,-0.612C0.425,-0.615 0.423,-0.618 0.42,-0.618Z" style="fill:white;fill-rule:nonzero;"/>
        </g>
    </g>
</svg>
