<?xml version="1.0" encoding="UTF-8" standalone="no"?>
<!DOCTYPE svg PUBLIC "-//W3C//DTD SVG 1.1//EN" "http://www.w3.org/Graphics/SVG/1.1/DTD/svg11.dtd">
<svg width="100%" height="100%" viewBox="0 0 1152 266" version="1.1" xmlns="http://www.w3.org/2000/svg" xmlns:xlink="http://www.w3.org/1999/xlink" xml:space="preserve" xmlns:serif="http://www.serif.com/" style="fill-rule:evenodd;clip-rule:evenodd;stroke-linejoin:round;stroke-miterlimit:2;">
    <g transform="matrix(1,0,0,1,222.12,192.04)">
        <g transform="matrix(180,0,0,180,0,0)">
            <path d="M0.374,-0.393L0.226,-0.661L0.05,-0.661L0.286,-0.235L0.374,-0.393ZM0.634,-0.661L0.475,-0.375L0.43,-0.292L0.43,-0.293L0.341,-0.134L0.412,-0L0.45,-0L0.791,-0.626L0.81,-0.661L0.634,-0.661Z" style="fill:white;fill-rule:nonzero;"/>
        </g>
        <g transform="matrix(1,0,0,1,154.8,0)">
            <g transform="matrix(180,0,0,180,0,0)">
                <rect x="0.05" y="-0.662" width="0.14" height="0.662" style="fill:white;fill-rule:nonzero;"/>
            </g>
        </g>
        <g transform="matrix(1,0,0,1,205.91,0)">
            <g transform="matrix(180,0,0,180,0,0)">
                <path d="M0.647,-0.376C0.636,-0.454 0.597,-0.525 0.538,-0.577C0.484,-0.625 0.416,-0.654 0.344,-0.66L0.05,-0.661L0.05,-0.52L0.328,-0.52C0.338,-0.52 0.347,-0.518 0.357,-0.516C0.385,-0.511 0.411,-0.499 0.434,-0.482C0.471,-0.453 0.497,-0.412 0.506,-0.367C0.509,-0.355 0.51,-0.342 0.51,-0.329C0.51,-0.316 0.509,-0.303 0.506,-0.29C0.49,-0.212 0.426,-0.152 0.348,-0.14L0.19,-0.14L0.19,-0.422L0.05,-0.422L0.05,-0L0.358,-0L0.359,-0C0.507,-0.018 0.625,-0.133 0.647,-0.281C0.649,-0.296 0.65,-0.313 0.65,-0.329C0.65,-0.345 0.649,-0.361 0.647,-0.376Z" style="fill:white;fill-rule:nonzero;"/>
            </g>
        </g>
        <g transform="matrix(1,0,0,1,331.91,0)">
            <g transform="matrix(180,0,0,180,0,0)">
                <path d="M0.05,-0.661L0.05,-0.634L0.05,-0.52L0.64,-0.52L0.64,-0.661L0.05,-0.661ZM0.19,-0.282L0.581,-0.282L0.581,-0.423L0.19,-0.423L0.05,-0.423L0.05,-0.14L0.05,-0.114L0.05,-0L0.64,-0L0.64,-0.14L0.19,-0.14L0.19,-0.282Z" style="fill:white;fill-rule:nonzero;"/>
            </g>
        </g>
        <g transform="matrix(1,0,0,1,448.19,0)">
            <g transform="matrix(180,0,0,180,0,0)">
                <path d="M0.379,-0.658C0.198,-0.658 0.05,-0.511 0.05,-0.329C0.05,-0.148 0.198,-0 0.379,-0C0.561,-0 0.708,-0.148 0.708,-0.329C0.708,-0.511 0.561,-0.658 0.379,-0.658ZM0.571,-0.329C0.571,-0.223 0.485,-0.137 0.379,-0.137C0.273,-0.137 0.187,-0.223 0.187,-0.329C0.187,-0.435 0.273,-0.521 0.379,-0.521C0.485,-0.521 0.571,-0.435 0.571,-0.329Z" style="fill:white;fill-rule:nonzero;"/>
            </g>
        </g>
        <g transform="matrix(1,0,0,1,582.83,0)">
            <g transform="matrix(180,0,0,180,0,0)">
                <path d="M0.44,-0.401L0.25,-0.401C0.217,-0.401 0.19,-0.428 0.19,-0.461C0.19,-0.494 0.217,-0.521 0.25,-0.521L0.47,-0.521C0.491,-0.513 0.506,-0.493 0.506,-0.47L0.644,-0.47C0.644,-0.487 0.641,-0.504 0.637,-0.521C0.615,-0.601 0.54,-0.661 0.452,-0.661L0.25,-0.661C0.179,-0.661 0.112,-0.622 0.076,-0.56C0.059,-0.53 0.05,-0.496 0.05,-0.461C0.05,-0.426 0.059,-0.391 0.076,-0.361C0.084,-0.348 0.093,-0.335 0.104,-0.324C0.141,-0.284 0.194,-0.26 0.25,-0.26L0.44,-0.26C0.473,-0.26 0.5,-0.233 0.5,-0.2C0.5,-0.167 0.473,-0.14 0.44,-0.14L0.224,-0.14C0.203,-0.148 0.187,-0.168 0.187,-0.191L0.05,-0.191C0.05,-0.174 0.052,-0.157 0.057,-0.14C0.079,-0.059 0.153,-0 0.241,-0L0.44,-0C0.512,-0 0.578,-0.039 0.614,-0.101C0.631,-0.131 0.64,-0.165 0.64,-0.2C0.64,-0.235 0.631,-0.27 0.614,-0.3C0.578,-0.362 0.512,-0.401 0.44,-0.401Z" style="fill:white;fill-rule:nonzero;"/>
            </g>
        </g>
    </g>
</svg>
