<?xml version="1.0" encoding="UTF-8" standalone="no"?>
<!DOCTYPE svg PUBLIC "-//W3C//DTD SVG 1.1//EN" "http://www.w3.org/Graphics/SVG/1.1/DTD/svg11.dtd">
<svg width="100%" height="100%" viewBox="0 0 1152 266" version="1.1" xmlns="http://www.w3.org/2000/svg" xmlns:xlink="http://www.w3.org/1999/xlink" xml:space="preserve" xmlns:serif="http://www.serif.com/" style="fill-rule:evenodd;clip-rule:evenodd;stroke-linejoin:round;stroke-miterlimit:2;">
    <g transform="matrix(1,0,0,1,419.84,185.43)">
        <g transform="matrix(160,0,0,160,0,0)">
            <path d="M0.449,-0.663L0.449,-0.404L0.196,-0.404L0.196,-0.663L0.05,-0.663L0.05,-0.258L0.449,-0.258L0.449,-0L0.595,-0L0.595,-0.663L0.449,-0.663Z" style="fill-rule:nonzero;"/>
        </g>
        <g transform="matrix(1,0,0,1,103.2,0)">
            <g transform="matrix(160,0,0,160,0,0)">
                <path d="M0.599,-0.559L0.594,-0.569C0.576,-0.597 0.551,-0.62 0.523,-0.637C0.497,-0.651 0.47,-0.66 0.441,-0.662L0.423,-0.663C0.418,-0.663 0.413,-0.663 0.409,-0.663L0.267,-0.663C0.262,-0.663 0.258,-0.663 0.253,-0.663L0.234,-0.662C0.205,-0.66 0.178,-0.651 0.152,-0.637C0.124,-0.62 0.099,-0.597 0.081,-0.569L0.076,-0.56C0.059,-0.53 0.05,-0.495 0.05,-0.461L0.05,-0.203C0.05,-0.168 0.059,-0.133 0.076,-0.103C0.078,-0.1 0.08,-0.097 0.081,-0.094C0.098,-0.068 0.121,-0.046 0.147,-0.03C0.149,-0.029 0.151,-0.028 0.153,-0.026C0.183,-0.009 0.218,0 0.253,0L0.423,0C0.427,0 0.432,-0 0.436,-0L0.45,-0.002L0.463,-0.004L0.475,-0.007C0.48,-0.008 0.485,-0.01 0.489,-0.011C0.49,-0.012 0.492,-0.012 0.494,-0.013C0.501,-0.015 0.507,-0.018 0.513,-0.021L0.523,-0.027L0.533,-0.033L0.544,-0.041L0.551,-0.046C0.557,-0.05 0.562,-0.055 0.566,-0.06C0.568,-0.061 0.569,-0.063 0.571,-0.065C0.579,-0.074 0.587,-0.084 0.594,-0.094C0.614,-0.127 0.625,-0.164 0.625,-0.203L0.625,-0.461C0.625,-0.495 0.616,-0.529 0.599,-0.559ZM0.479,-0.461C0.479,-0.461 0.479,-0.203 0.479,-0.203C0.479,-0.172 0.454,-0.146 0.423,-0.146L0.253,-0.146C0.222,-0.146 0.196,-0.172 0.196,-0.203L0.196,-0.461C0.196,-0.489 0.217,-0.513 0.245,-0.517L0.26,-0.517L0.261,-0.516L0.414,-0.516L0.415,-0.517L0.43,-0.517C0.458,-0.513 0.479,-0.489 0.479,-0.461Z" style="fill-rule:nonzero;"/>
            </g>
        </g>
        <g transform="matrix(1,0,0,1,209.12,0)">
            <g transform="matrix(160,0,0,160,0,0)">
                <path d="M0.449,-0.663L0.449,-0.404L0.196,-0.404L0.196,-0.663L0.05,-0.663L0.05,-0.258L0.449,-0.258L0.449,-0L0.595,-0L0.595,-0.663L0.449,-0.663Z" style="fill-rule:nonzero;"/>
            </g>
        </g>
    </g>
</svg>
