<?xml version="1.0" encoding="UTF-8" standalone="no"?>
<svg
   width="1890.4879"
   height="566.76202"
   viewBox="0 0 1890.4879 566.76202"
   version="1.1"
   xml:space="preserve"
   style="clip-rule:evenodd;fill-rule:evenodd;stroke-linejoin:round;stroke-miterlimit:2"
   id="svg27"
   sodipodi:docname="bts-wide.svg"
   inkscape:version="1.4 (e7c3feb1, 2024-10-09)"
   xmlns:inkscape="http://www.inkscape.org/namespaces/inkscape"
   xmlns:sodipodi="http://sodipodi.sourceforge.net/DTD/sodipodi-0.dtd"
   xmlns="http://www.w3.org/2000/svg"
   xmlns:svg="http://www.w3.org/2000/svg"><defs
   id="defs27"><clipPath
     clipPathUnits="userSpaceOnUse"
     id="clipPath44"><rect
       style="fill:#000000;stroke-width:0.610443"
       id="rect45"
       width="1223.6978"
       height="468.93942"
       x="334.67499"
       y="18.340298" /></clipPath><clipPath
     clipPathUnits="userSpaceOnUse"
     id="clipPath45"><rect
       style="fill:#000000;stroke-width:1.04726"
       id="rect46"
       width="2099.3354"
       height="804.49658"
       x="59.041576"
       y="115.8023" /></clipPath><clipPath
     clipPathUnits="userSpaceOnUse"
     id="clipPath46"><rect
       style="fill:#000000;stroke-width:2.76032"
       id="rect47"
       width="5546.3062"
       height="2115.5066"
       x="177.67111"
       y="-122.65749" /></clipPath></defs><sodipodi:namedview
   id="namedview27"
   pagecolor="#ffffff"
   bordercolor="#000000"
   borderopacity="0.25"
   inkscape:showpageshadow="2"
   inkscape:pageopacity="0.0"
   inkscape:pagecheckerboard="0"
   inkscape:deskcolor="#d1d1d1"
   inkscape:zoom="0.30010451"
   inkscape:cx="1039.6378"
   inkscape:cy="363.2068"
   inkscape:window-width="1200"
   inkscape:window-height="1027"
   inkscape:window-x="51"
   inkscape:window-y="25"
   inkscape:window-maximized="0"
   inkscape:current-layer="svg27"
   inkscape:clip-to-page="false" />
    <g
   transform="matrix(0.36227715,0,0,0.36227715,-115.77692,-78.895777)"
   id="g7"
   clip-path="url(#clipPath46)">
        <g
   transform="matrix(1.21393,0,0,1.21393,-216.315,-211.623)"
   id="g1">
            <path
   d="M 803.839,1642.47 767.27,1453.96 c 0,0 -138.158,18.97 -164.058,-27.63 -25.901,-46.59 -51.977,-275.13 -51.977,-275.13 0,0 -111.134,-30.06 -109.767,-52.01 1.367,-21.95 100.881,-259.972 100.881,-259.972 0,0 -15.554,-363.501 366.373,-463.593 0,0 332.208,-121.722 575.028,208.8 0,0 205.28,276.522 -47.15,582.385 0,0 -147.43,116.69 -109.44,273.09 l 56.63,199.59 z"
   style="fill:#003566"
   id="path1" />
        </g>
        <g
   transform="translate(20)"
   id="g2">
            <path
   d="m 1130.51,1200.94 c 0,0 6.08,-129.21 -130.51,-176.33 0,0 -160.878,14.3 -199.739,-111.191 0,0 -28.754,-15.997 -116.991,-13.772 0,0 -96.682,-20.958 -120.496,-109.059 0,0 -51.811,-102.848 42.606,-190.117 0,0 -6.382,-119.845 123.761,-128.631 0,0 38.978,-70.383 128.223,-51.159 0,0 59.68,-89.622 181.006,-40.376 0,0 71.12,-47.362 146.52,9.324 0,0 89.71,-30.024 135.36,58.837 0,0 115.46,9.016 136.12,127.353 0,0 99.01,35.335 66.4,161.6 0,0 39.73,134.816 -80.37,183.651 0,0 -9.81,183.95 -195.67,180.81 l 13.02,99.25 z"
   style="fill:#ffffff;fill-opacity:0.08"
   id="path2" />
        </g>
        <g
   transform="matrix(0.670989,0,0,0.670989,-32.0284,15.5763)"
   id="g6">
            <g
   transform="matrix(612.077,0,0,612.077,1249.07,1207.97)"
   id="g3">
                <path
   d="m 0.382,-0.397 v -0.097 c 0,-0.069 -0.056,-0.125 -0.125,-0.125 H 0.012 C 0.005,-0.619 0,-0.613 0,-0.607 v 0.056 c 0,0.006 0.005,0.012 0.012,0.012 h 0.009 c 0.006,0 0.012,0.005 0.012,0.012 v 0.435 c 0,0.007 -0.006,0.012 -0.012,0.012 H 0.012 C 0.005,-0.08 0,-0.074 0,-0.067 v 0.055 C 0,-0.005 0.005,0 0.012,0 h 0.245 c 0.069,0 0.125,-0.056 0.125,-0.125 v -0.097 c 0,-0.031 -0.013,-0.059 -0.032,-0.079 -0.005,-0.005 -0.005,-0.012 0,-0.017 0.019,-0.02 0.032,-0.048 0.032,-0.079 z M 0.17,-0.504 h 0.047 c 0.028,0 0.05,0.022 0.05,0.05 v 0.04 c 0,0.028 -0.022,0.05 -0.05,0.05 H 0.17 c -0.006,0 -0.012,-0.005 -0.012,-0.012 v -0.116 c 0,-0.007 0.006,-0.012 0.012,-0.012 z m 0.097,0.342 c 0,0.028 -0.022,0.05 -0.05,0.05 H 0.17 c -0.006,0 -0.012,-0.005 -0.012,-0.012 V -0.24 c 0,-0.007 0.006,-0.012 0.012,-0.012 h 0.047 c 0.028,0 0.05,0.022 0.05,0.05 z"
   style="fill:#ffffff;fill-rule:nonzero"
   id="path3" />
            </g>
            <g
   transform="matrix(612.077,0,0,612.077,1510.42,1207.97)"
   id="g4">
                <path
   d="m 0,-0.601 v 0.134 c 0,0.009 0.008,0.017 0.017,0.017 h 0.085 c 0.009,0 0.017,-0.008 0.017,-0.017 v -0.019 c 0,-0.009 0.008,-0.017 0.017,-0.017 0.009,0 0.017,0.008 0.017,0.017 v 0.469 C 0.153,-0.008 0.161,0 0.17,0 h 0.085 c 0.01,0 0.017,-0.008 0.017,-0.017 v -0.469 c 0,-0.009 0.008,-0.017 0.017,-0.017 0.01,0 0.017,0.008 0.017,0.017 v 0.019 c 0,0.009 0.008,0.017 0.017,0.017 h 0.085 c 0.01,0 0.017,-0.008 0.017,-0.017 v -0.134 c 0,-0.009 -0.007,-0.017 -0.017,-0.017 H 0.017 C 0.008,-0.618 0,-0.61 0,-0.601 Z"
   style="fill:#ffffff;fill-rule:nonzero"
   id="path4" />
            </g>
            <g
   transform="matrix(612.077,0,0,612.077,1802.38,1207.97)"
   id="g5">
                <path
   d="M 0.22,-0.364 H 0.187 c -0.02,0 -0.063,0.001 -0.063,-0.036 v -0.066 c 0,-0.02 0.017,-0.037 0.038,-0.037 h 0.025 c 0.021,0 0.037,0.017 0.037,0.037 v 0.037 c 0.001,0.003 0.003,0.013 0.012,0.013 h 0.102 c 0.01,0 0.011,-0.013 0.011,-0.014 V -0.489 C 0.349,-0.56 0.291,-0.618 0.22,-0.618 H 0.129 C 0.058,-0.618 0,-0.56 0,-0.489 v 0.111 c 0,0.071 0.058,0.129 0.129,0.129 h 0.058 c 0.021,0 0.038,0.016 0.038,0.037 v 0.06 c 0,0.021 -0.017,0.037 -0.038,0.037 H 0.162 c -0.021,0 -0.037,-0.016 -0.037,-0.037 v -0.035 c 0,0 -0.001,-0.014 -0.012,-0.014 H 0.011 c -0.008,0 -0.01,0.009 -0.011,0.013 v 0.059 C 0,-0.057 0.058,0 0.129,0 H 0.22 c 0.071,0 0.129,-0.057 0.129,-0.129 v -0.106 c 0,-0.071 -0.058,-0.129 -0.129,-0.129 z"
   style="fill:#ffffff;fill-rule:nonzero"
   id="path5" />
            </g>
        </g>
    </g>
    <g
   transform="matrix(0.95711248,0,0,0.95264504,-107.92016,-233.65027)"
   id="g19"
   clip-path="url(#clipPath45)">
        <g
   transform="matrix(286.75,0,0,286.75,719.867,422.764)"
   id="g8">
            <path
   d="m 0.382,-0.397 v -0.097 c 0,-0.069 -0.056,-0.125 -0.125,-0.125 H 0.012 C 0.005,-0.619 0,-0.613 0,-0.607 v 0.056 c 0,0.006 0.005,0.012 0.012,0.012 h 0.009 c 0.006,0 0.012,0.005 0.012,0.012 v 0.435 c 0,0.007 -0.006,0.012 -0.012,0.012 H 0.012 C 0.005,-0.08 0,-0.074 0,-0.067 v 0.055 C 0,-0.005 0.005,0 0.012,0 h 0.245 c 0.069,0 0.125,-0.056 0.125,-0.125 v -0.097 c 0,-0.031 -0.013,-0.059 -0.032,-0.079 -0.005,-0.005 -0.005,-0.012 0,-0.017 0.019,-0.02 0.032,-0.048 0.032,-0.079 z M 0.17,-0.504 h 0.047 c 0.028,0 0.05,0.022 0.05,0.05 v 0.04 c 0,0.028 -0.022,0.05 -0.05,0.05 H 0.17 c -0.006,0 -0.012,-0.005 -0.012,-0.012 v -0.116 c 0,-0.007 0.006,-0.012 0.012,-0.012 z m 0.097,0.342 c 0,0.028 -0.022,0.05 -0.05,0.05 H 0.17 c -0.006,0 -0.012,-0.005 -0.012,-0.012 V -0.24 c 0,-0.007 0.006,-0.012 0.012,-0.012 h 0.047 c 0.028,0 0.05,0.022 0.05,0.05 z"
   style="fill:#ffffff;fill-rule:nonzero"
   id="path7" />
        </g>
        <g
   transform="matrix(286.75,0,0,286.75,842.31,422.764)"
   id="g9">
            <path
   d="m 0.414,-0.08 h -0.02 c -0.006,0 -0.011,-0.005 -0.011,-0.011 v -0.154 c 0,-0.008 -0.003,-0.011 -0.006,-0.013 L 0.355,-0.27 C 0.348,-0.273 0.347,-0.282 0.352,-0.287 0.371,-0.308 0.383,-0.335 0.383,-0.365 v -0.129 c 0,-0.068 -0.056,-0.124 -0.124,-0.124 H 0.011 C 0.005,-0.618 0,-0.613 0,-0.607 v 0.058 c 0,0.006 0.005,0.011 0.011,0.011 h 0.011 c 0.006,0 0.011,0.005 0.011,0.011 v 0.436 c 0,0.006 -0.005,0.011 -0.011,0.011 H 0.011 C 0.005,-0.08 0,-0.075 0,-0.069 v 0.058 C 0,-0.005 0.005,0 0.011,0 h 0.13 c 0.006,0 0.011,-0.005 0.011,-0.011 v -0.213 c 0,-0.008 0.009,-0.013 0.016,-0.009 l 0.09,0.047 c 0.003,0.002 0.006,0.005 0.006,0.009 v 0.166 C 0.264,-0.005 0.269,0 0.275,0 H 0.414 C 0.42,0 0.425,-0.005 0.425,-0.011 V -0.069 C 0.425,-0.075 0.42,-0.08 0.414,-0.08 Z M 0.269,-0.407 c 0,0.021 -0.017,0.038 -0.037,0.038 H 0.163 c -0.006,0 -0.011,-0.005 -0.011,-0.011 v -0.1 c 0,-0.006 0.005,-0.011 0.011,-0.011 h 0.069 c 0.02,0 0.037,0.017 0.037,0.037 z"
   style="fill:#ffffff;fill-rule:nonzero"
   id="path8" />
        </g>
        <g
   transform="matrix(286.75,0,0,286.75,974.788,422.764)"
   id="g10">
            <path
   d="m 0,-0.607 v 0.058 c 0,0.006 0.005,0.011 0.011,0.011 h 0.011 c 0.006,0 0.011,0.005 0.011,0.011 v 0.436 c 0,0.006 -0.005,0.011 -0.011,0.011 H 0.011 C 0.005,-0.08 0,-0.075 0,-0.069 v 0.058 C 0,-0.005 0.005,0 0.011,0 h 0.361 c 0.006,0 0.011,-0.005 0.011,-0.011 v -0.142 c 0,-0.006 -0.005,-0.011 -0.011,-0.011 H 0.275 c -0.006,0 -0.011,0.005 -0.011,0.011 v 0.031 c 0,0.006 -0.005,0.01 -0.011,0.01 H 0.169 c -0.006,0 -0.011,-0.004 -0.011,-0.01 v -0.119 c 0,-0.006 0.005,-0.011 0.011,-0.011 h 0.084 c 0.006,0 0.011,-0.005 0.011,-0.011 v -0.09 c 0,-0.006 -0.005,-0.011 -0.011,-0.011 H 0.169 c -0.006,0 -0.011,-0.005 -0.011,-0.01 v -0.118 c 0,-0.006 0.005,-0.011 0.011,-0.011 h 0.084 c 0.006,0 0.011,0.005 0.011,0.011 v 0.031 c 0,0.006 0.005,0.011 0.011,0.011 h 0.097 c 0.006,0 0.011,-0.005 0.011,-0.011 v -0.146 c 0,-0.006 -0.005,-0.011 -0.011,-0.011 H 0.011 C 0.005,-0.618 0,-0.613 0,-0.607 Z"
   style="fill:#ffffff;fill-rule:nonzero"
   id="path9" />
        </g>
        <g
   transform="matrix(286.75,0,0,286.75,1095.22,422.764)"
   id="g11">
            <path
   d="M 0.385,-0.089 0.285,-0.61 C 0.284,-0.615 0.279,-0.619 0.274,-0.619 H 0.148 c -0.006,0 -0.011,0.004 -0.012,0.009 l -0.1,0.521 C 0.035,-0.084 0.031,-0.08 0.025,-0.08 H 0.011 C 0.005,-0.08 0,-0.075 0,-0.068 v 0.057 C 0,-0.005 0.005,0 0.011,0 h 0.118 c 0.005,0 0.01,-0.004 0.011,-0.009 l 0.018,-0.093 c 0.001,-0.006 0.006,-0.01 0.011,-0.01 h 0.083 c 0.005,0 0.01,0.004 0.011,0.01 l 0.018,0.093 C 0.282,-0.004 0.287,0 0.292,0 H 0.41 C 0.416,0 0.421,-0.005 0.421,-0.011 V -0.068 C 0.421,-0.075 0.416,-0.08 0.41,-0.08 H 0.396 c -0.005,0 -0.01,-0.004 -0.011,-0.009 z m -0.2,-0.155 0.014,-0.074 c 0.003,-0.012 0.02,-0.012 0.023,0 l 0.014,0.074 c 0.001,0.007 -0.004,0.013 -0.011,0.013 H 0.196 c -0.007,0 -0.012,-0.006 -0.011,-0.013 z"
   style="fill:#ffffff;fill-rule:nonzero"
   id="path10" />
        </g>
        <g
   transform="matrix(286.75,0,0,286.75,1226.56,422.764)"
   id="g12">
            <path
   d="m 0.391,-0.551 v -0.054 c 0,-0.007 -0.005,-0.013 -0.012,-0.013 H 0.242 c -0.007,0 -0.012,0.006 -0.012,0.013 v 0.163 c 0,0.005 -0.003,0.008 -0.007,0.01 L 0.17,-0.404 C 0.162,-0.4 0.152,-0.406 0.152,-0.415 v -0.19 c 0,-0.007 -0.006,-0.013 -0.012,-0.013 H 0.012 C 0.006,-0.618 0,-0.612 0,-0.605 v 0.054 c 0,0.007 0.006,0.013 0.012,0.013 H 0.02 c 0.007,0 0.013,0.005 0.013,0.012 v 0.434 c 0,0.007 -0.006,0.012 -0.013,0.012 H 0.012 C 0.006,-0.08 0,-0.074 0,-0.067 v 0.055 C 0,-0.006 0.006,0 0.012,0 H 0.14 c 0.006,0 0.012,-0.006 0.012,-0.012 v -0.191 c 0,-0.01 0.01,-0.016 0.018,-0.011 l 0.053,0.027 c 0.004,0.002 0.007,0.007 0.007,0.011 v 0.164 C 0.23,-0.006 0.235,0 0.242,0 H 0.379 C 0.386,0 0.391,-0.006 0.391,-0.012 V -0.067 C 0.391,-0.074 0.386,-0.08 0.379,-0.08 H 0.361 c -0.007,0 -0.012,-0.005 -0.012,-0.012 v -0.141 c 0,-0.017 -0.007,-0.025 -0.012,-0.029 l -0.07,-0.036 c -0.009,-0.005 -0.009,-0.018 0,-0.022 l 0.067,-0.036 c 0.012,-0.006 0.014,-0.016 0.015,-0.021 v -0.149 c 0,-0.007 0.005,-0.012 0.012,-0.012 h 0.018 c 0.007,0 0.012,-0.006 0.012,-0.013 z"
   style="fill:#ffffff;fill-rule:nonzero"
   id="path11" />
        </g>
        <g
   transform="matrix(286.75,0,0,286.75,1349.28,422.764)"
   id="g13">
            <path
   d="m 0.186,-0.548 v -0.06 c 0,-0.006 -0.004,-0.01 -0.01,-0.01 H 0.01 C 0.004,-0.618 0,-0.614 0,-0.608 v 0.06 c 0,0.005 0.004,0.01 0.01,0.01 h 0.013 c 0.006,0 0.01,0.004 0.01,0.01 v 0.439 c 0,0.005 -0.004,0.009 -0.01,0.009 H 0.01 C 0.004,-0.08 0,-0.075 0,-0.07 v 0.06 C 0,-0.004 0.004,0 0.01,0 h 0.165 c 0.005,0 0.01,-0.004 0.01,-0.01 v -0.06 c 0,-0.005 -0.005,-0.01 -0.01,-0.01 H 0.162 c -0.006,0 -0.01,-0.004 -0.01,-0.009 v -0.439 c 0,-0.006 0.004,-0.01 0.01,-0.01 h 0.014 c 0.006,0 0.01,-0.005 0.01,-0.01 z"
   style="fill:#ffffff;fill-rule:nonzero"
   id="path12" />
        </g>
        <g
   transform="matrix(286.75,0,0,286.75,1413.23,422.764)"
   id="g14">
            <path
   d="m 0.425,-0.548 v -0.061 c 0,-0.005 -0.004,-0.009 -0.009,-0.009 H 0.282 c -0.005,0 -0.009,0.004 -0.009,0.009 v 0.24 c 0,0.011 -0.014,0.013 -0.017,0.003 L 0.184,-0.612 C 0.183,-0.615 0.18,-0.618 0.176,-0.618 H 0.009 C 0.004,-0.618 0,-0.614 0,-0.609 v 0.061 c 0,0.005 0.004,0.009 0.009,0.009 h 0.015 c 0.005,0 0.009,0.004 0.009,0.009 v 0.441 c 0,0.005 -0.004,0.009 -0.009,0.009 H 0.009 C 0.004,-0.08 0,-0.076 0,-0.071 v 0.062 C 0,-0.004 0.004,0 0.009,0 H 0.143 C 0.148,0 0.152,-0.004 0.152,-0.009 V -0.25 c 0,-0.011 0.015,-0.013 0.018,-0.003 l 0.071,0.247 C 0.242,-0.003 0.246,0 0.25,0 H 0.416 C 0.421,0 0.425,-0.004 0.425,-0.009 V -0.071 C 0.425,-0.076 0.421,-0.08 0.416,-0.08 H 0.401 c -0.005,0 -0.009,-0.004 -0.009,-0.009 V -0.53 c 0,-0.005 0.004,-0.009 0.009,-0.009 h 0.015 c 0.005,0 0.009,-0.004 0.009,-0.009 z"
   style="fill:#ffffff;fill-rule:nonzero"
   id="path13" />
        </g>
        <g
   transform="matrix(286.75,0,0,286.75,1545.71,422.764)"
   id="g15">
            <path
   d="m 0.246,-0.411 h 0.092 c 0.008,0 0.01,-0.009 0.011,-0.013 v -0.183 c 0,-0.01 -0.014,-0.011 -0.014,-0.011 H 0.144 C 0.065,-0.618 0,-0.553 0,-0.474 v 0.33 C 0,-0.065 0.065,0 0.144,0 h 0.194 c 0.008,0 0.01,-0.009 0.011,-0.012 v -0.34 c 0,-0.009 -0.01,-0.011 -0.013,-0.012 H 0.209 c 0,0 -0.013,0.001 -0.014,0.011 v 0.057 c 0.001,0.004 0.003,0.012 0.012,0.012 h 0.007 c 0.008,0 0.016,0.007 0.016,0.016 v 0.132 C 0.229,-0.127 0.225,-0.11 0.203,-0.11 H 0.179 c -0.033,0 -0.06,-0.027 -0.06,-0.06 v -0.271 c 0,-0.034 0.028,-0.062 0.062,-0.062 h 0.03 c 0.005,0.002 0.019,0.008 0.019,0.029 v 0.047 c 0,0.009 0.007,0.016 0.016,0.016 z"
   style="fill:#ffffff;fill-rule:nonzero"
   id="path14" />
        </g>
        <g
   transform="matrix(286.75,0,0,286.75,1713.17,422.764)"
   id="g16">
            <path
   d="m 0,-0.601 v 0.134 c 0,0.009 0.008,0.017 0.017,0.017 h 0.085 c 0.009,0 0.017,-0.008 0.017,-0.017 v -0.019 c 0,-0.009 0.008,-0.017 0.017,-0.017 0.009,0 0.017,0.008 0.017,0.017 v 0.469 C 0.153,-0.008 0.161,0 0.17,0 h 0.085 c 0.01,0 0.017,-0.008 0.017,-0.017 v -0.469 c 0,-0.009 0.008,-0.017 0.017,-0.017 0.01,0 0.017,0.008 0.017,0.017 v 0.019 c 0,0.009 0.008,0.017 0.017,0.017 h 0.085 c 0.01,0 0.017,-0.008 0.017,-0.017 v -0.134 c 0,-0.009 -0.007,-0.017 -0.017,-0.017 H 0.017 C 0.008,-0.618 0,-0.61 0,-0.601 Z"
   style="fill:#ffffff;fill-rule:nonzero"
   id="path15" />
        </g>
        <g
   transform="matrix(286.75,0,0,286.75,1845.65,422.764)"
   id="g17">
            <path
   d="m 0.425,-0.55 v -0.056 c 0,-0.007 -0.005,-0.012 -0.012,-0.012 H 0.285 c -0.006,0 -0.012,0.005 -0.012,0.012 v 0.367 c 0,0.007 -0.005,0.012 -0.012,0.012 H 0.164 c -0.007,0 -0.012,-0.005 -0.012,-0.012 v -0.367 c 0,-0.007 -0.005,-0.012 -0.012,-0.012 H 0.012 C 0.005,-0.618 0,-0.613 0,-0.606 v 0.056 c 0,0.006 0.005,0.012 0.012,0.012 h 0.009 c 0.007,0 0.012,0.005 0.012,0.012 v 0.434 c 0,0.007 -0.005,0.012 -0.012,0.012 H 0.012 C 0.005,-0.08 0,-0.074 0,-0.068 v 0.056 C 0,-0.005 0.005,0 0.012,0 H 0.14 c 0.007,0 0.012,-0.005 0.012,-0.012 v -0.084 c 0,-0.007 0.005,-0.012 0.012,-0.012 h 0.097 c 0.007,0 0.012,0.005 0.012,0.012 v 0.084 C 0.273,-0.005 0.279,0 0.285,0 H 0.413 C 0.42,0 0.425,-0.005 0.425,-0.012 V -0.068 C 0.425,-0.074 0.42,-0.08 0.413,-0.08 H 0.404 c -0.006,0 -0.012,-0.005 -0.012,-0.012 v -0.434 c 0,-0.007 0.006,-0.012 0.012,-0.012 h 0.009 c 0.007,0 0.012,-0.006 0.012,-0.012 z"
   style="fill:#ffffff;fill-rule:nonzero"
   id="path16" />
        </g>
        <g
   transform="matrix(286.75,0,0,286.75,1978.13,422.764)"
   id="g18">
            <path
   d="m 0,-0.607 v 0.058 c 0,0.006 0.005,0.011 0.011,0.011 h 0.011 c 0.006,0 0.011,0.005 0.011,0.011 v 0.436 c 0,0.006 -0.005,0.011 -0.011,0.011 H 0.011 C 0.005,-0.08 0,-0.075 0,-0.069 v 0.058 C 0,-0.005 0.005,0 0.011,0 h 0.361 c 0.006,0 0.011,-0.005 0.011,-0.011 v -0.142 c 0,-0.006 -0.005,-0.011 -0.011,-0.011 H 0.275 c -0.006,0 -0.011,0.005 -0.011,0.011 v 0.031 c 0,0.006 -0.005,0.01 -0.011,0.01 H 0.169 c -0.006,0 -0.011,-0.004 -0.011,-0.01 v -0.119 c 0,-0.006 0.005,-0.011 0.011,-0.011 h 0.084 c 0.006,0 0.011,-0.005 0.011,-0.011 v -0.09 c 0,-0.006 -0.005,-0.011 -0.011,-0.011 H 0.169 c -0.006,0 -0.011,-0.005 -0.011,-0.01 v -0.118 c 0,-0.006 0.005,-0.011 0.011,-0.011 h 0.084 c 0.006,0 0.011,0.005 0.011,0.011 v 0.031 c 0,0.006 0.005,0.011 0.011,0.011 h 0.097 c 0.006,0 0.011,-0.005 0.011,-0.011 v -0.146 c 0,-0.006 -0.005,-0.011 -0.011,-0.011 H 0.011 C 0.005,-0.618 0,-0.613 0,-0.607 Z"
   style="fill:#ffffff;fill-rule:nonzero"
   id="path17" />
        </g>
    </g>
    <g
   transform="matrix(1.6419904,0,0,1.6343255,-600.94383,-153.3058)"
   id="g27"
   clip-path="url(#clipPath44)">
        <g
   transform="matrix(286.75,0,0,286.75,719.867,422.764)"
   id="g20">
            <path
   d="M 0.22,-0.364 H 0.187 c -0.02,0 -0.063,0.001 -0.063,-0.036 v -0.066 c 0,-0.02 0.017,-0.037 0.038,-0.037 h 0.025 c 0.021,0 0.037,0.017 0.037,0.037 v 0.037 c 0.001,0.003 0.003,0.013 0.012,0.013 h 0.102 c 0.01,0 0.011,-0.013 0.011,-0.014 V -0.489 C 0.349,-0.56 0.291,-0.618 0.22,-0.618 H 0.129 C 0.058,-0.618 0,-0.56 0,-0.489 v 0.111 c 0,0.071 0.058,0.129 0.129,0.129 h 0.058 c 0.021,0 0.038,0.016 0.038,0.037 v 0.06 c 0,0.021 -0.017,0.037 -0.038,0.037 H 0.162 c -0.021,0 -0.037,-0.016 -0.037,-0.037 v -0.035 c 0,0 -0.001,-0.014 -0.012,-0.014 H 0.011 c -0.008,0 -0.01,0.009 -0.011,0.013 v 0.059 C 0,-0.057 0.058,0 0.129,0 H 0.22 c 0.071,0 0.129,-0.057 0.129,-0.129 v -0.106 c 0,-0.071 -0.058,-0.129 -0.129,-0.129 z"
   style="fill:#ffffff;fill-rule:nonzero"
   id="path19" />
        </g>
        <g
   transform="matrix(286.75,0,0,286.75,835.714,422.764)"
   id="g21">
            <path
   d="m 0.186,-0.548 v -0.06 c 0,-0.006 -0.004,-0.01 -0.01,-0.01 H 0.01 C 0.004,-0.618 0,-0.614 0,-0.608 v 0.06 c 0,0.005 0.004,0.01 0.01,0.01 h 0.013 c 0.006,0 0.01,0.004 0.01,0.01 v 0.439 c 0,0.005 -0.004,0.009 -0.01,0.009 H 0.01 C 0.004,-0.08 0,-0.075 0,-0.07 v 0.06 C 0,-0.004 0.004,0 0.01,0 h 0.165 c 0.005,0 0.01,-0.004 0.01,-0.01 v -0.06 c 0,-0.005 -0.005,-0.01 -0.01,-0.01 H 0.162 c -0.006,0 -0.01,-0.004 -0.01,-0.009 v -0.439 c 0,-0.006 0.004,-0.01 0.01,-0.01 h 0.014 c 0.006,0 0.01,-0.005 0.01,-0.01 z"
   style="fill:#ffffff;fill-rule:nonzero"
   id="path20" />
        </g>
        <g
   transform="matrix(286.75,0,0,286.75,908.836,422.764)"
   id="g22">
            <path
   d="m 0.372,0 c 0.01,0 0.011,-0.014 0.011,-0.014 v -0.13 c 0,-0.006 -0.005,-0.011 -0.011,-0.011 H 0.275 c -0.006,0 -0.011,0.005 -0.011,0.011 v 0.021 c 0,0.006 -0.005,0.011 -0.011,0.011 h -0.09 c -0.006,0 -0.011,-0.005 -0.011,-0.011 v -0.484 c 0,-0.006 -0.005,-0.011 -0.011,-0.011 H 0.011 C 0.005,-0.618 0,-0.613 0,-0.607 v 0.058 c 0,0.006 0.005,0.011 0.011,0.011 h 0.011 c 0.006,0 0.011,0.005 0.011,0.011 v 0.436 c 0,0.006 -0.005,0.011 -0.011,0.011 H 0.011 C 0.005,-0.08 0,-0.075 0,-0.069 v 0.058 C 0,-0.005 0.005,0 0.011,0 Z"
   style="fill:#ffffff;fill-rule:nonzero"
   id="path21" />
        </g>
        <g
   transform="matrix(286.75,0,0,286.75,1029.56,422.764)"
   id="g23">
            <path
   d="m 0,-0.607 v 0.058 c 0,0.006 0.005,0.011 0.011,0.011 h 0.011 c 0.006,0 0.011,0.005 0.011,0.011 v 0.436 c 0,0.006 -0.005,0.011 -0.011,0.011 H 0.011 C 0.005,-0.08 0,-0.075 0,-0.069 v 0.058 C 0,-0.005 0.005,0 0.011,0 h 0.361 c 0.006,0 0.011,-0.005 0.011,-0.011 v -0.142 c 0,-0.006 -0.005,-0.011 -0.011,-0.011 H 0.275 c -0.006,0 -0.011,0.005 -0.011,0.011 v 0.031 c 0,0.006 -0.005,0.01 -0.011,0.01 H 0.169 c -0.006,0 -0.011,-0.004 -0.011,-0.01 v -0.119 c 0,-0.006 0.005,-0.011 0.011,-0.011 h 0.084 c 0.006,0 0.011,-0.005 0.011,-0.011 v -0.09 c 0,-0.006 -0.005,-0.011 -0.011,-0.011 H 0.169 c -0.006,0 -0.011,-0.005 -0.011,-0.01 v -0.118 c 0,-0.006 0.005,-0.011 0.011,-0.011 h 0.084 c 0.006,0 0.011,0.005 0.011,0.011 v 0.031 c 0,0.006 0.005,0.011 0.011,0.011 h 0.097 c 0.006,0 0.011,-0.005 0.011,-0.011 v -0.146 c 0,-0.006 -0.005,-0.011 -0.011,-0.011 H 0.011 C 0.005,-0.618 0,-0.613 0,-0.607 Z"
   style="fill:#ffffff;fill-rule:nonzero"
   id="path22" />
        </g>
        <g
   transform="matrix(286.75,0,0,286.75,1154.29,422.764)"
   id="g24">
            <path
   d="m 0.425,-0.548 v -0.061 c 0,-0.005 -0.004,-0.009 -0.009,-0.009 H 0.282 c -0.005,0 -0.009,0.004 -0.009,0.009 v 0.24 c 0,0.011 -0.014,0.013 -0.017,0.003 L 0.184,-0.612 C 0.183,-0.615 0.18,-0.618 0.176,-0.618 H 0.009 C 0.004,-0.618 0,-0.614 0,-0.609 v 0.061 c 0,0.005 0.004,0.009 0.009,0.009 h 0.015 c 0.005,0 0.009,0.004 0.009,0.009 v 0.441 c 0,0.005 -0.004,0.009 -0.009,0.009 H 0.009 C 0.004,-0.08 0,-0.076 0,-0.071 v 0.062 C 0,-0.004 0.004,0 0.009,0 H 0.143 C 0.148,0 0.152,-0.004 0.152,-0.009 V -0.25 c 0,-0.011 0.015,-0.013 0.018,-0.003 l 0.071,0.247 C 0.242,-0.003 0.246,0 0.25,0 H 0.416 C 0.421,0 0.425,-0.004 0.425,-0.009 V -0.071 C 0.425,-0.076 0.421,-0.08 0.416,-0.08 H 0.401 c -0.005,0 -0.009,-0.004 -0.009,-0.009 V -0.53 c 0,-0.005 0.004,-0.009 0.009,-0.009 h 0.015 c 0.005,0 0.009,-0.004 0.009,-0.009 z"
   style="fill:#ffffff;fill-rule:nonzero"
   id="path23" />
        </g>
        <g
   transform="matrix(286.75,0,0,286.75,1293.08,422.764)"
   id="g25">
            <path
   d="m 0.349,-0.425 v -0.182 c 0,-0.01 -0.014,-0.011 -0.014,-0.011 H 0.129 C 0.058,-0.618 0,-0.56 0,-0.489 v 0.361 c 0,0.071 0.058,0.129 0.129,0.129 h 0.209 c 0.01,0 0.011,-0.013 0.011,-0.014 v -0.182 c 0,-0.009 -0.012,-0.011 -0.014,-0.011 H 0.243 c -0.002,0 -0.013,0.002 -0.013,0.011 v 0.074 c 0,0.01 -0.009,0.012 -0.012,0.012 H 0.166 c 0,0 -0.047,0.001 -0.047,-0.048 v -0.299 c 0,-0.026 0.021,-0.047 0.047,-0.047 h 0.051 c 0,0 0.013,0.001 0.013,0.012 v 0.069 c 0,0.003 0.002,0.011 0.012,0.011 h 0.097 c 0.009,-0.001 0.01,-0.012 0.01,-0.014 z"
   style="fill:#ffffff;fill-rule:nonzero"
   id="path24" />
        </g>
        <g
   transform="matrix(286.75,0,0,286.75,1407.49,422.764)"
   id="g26">
            <path
   d="m 0,-0.607 v 0.058 c 0,0.006 0.005,0.011 0.011,0.011 h 0.011 c 0.006,0 0.011,0.005 0.011,0.011 v 0.436 c 0,0.006 -0.005,0.011 -0.011,0.011 H 0.011 C 0.005,-0.08 0,-0.075 0,-0.069 v 0.058 C 0,-0.005 0.005,0 0.011,0 h 0.361 c 0.006,0 0.011,-0.005 0.011,-0.011 v -0.142 c 0,-0.006 -0.005,-0.011 -0.011,-0.011 H 0.275 c -0.006,0 -0.011,0.005 -0.011,0.011 v 0.031 c 0,0.006 -0.005,0.01 -0.011,0.01 H 0.169 c -0.006,0 -0.011,-0.004 -0.011,-0.01 v -0.119 c 0,-0.006 0.005,-0.011 0.011,-0.011 h 0.084 c 0.006,0 0.011,-0.005 0.011,-0.011 v -0.09 c 0,-0.006 -0.005,-0.011 -0.011,-0.011 H 0.169 c -0.006,0 -0.011,-0.005 -0.011,-0.01 v -0.118 c 0,-0.006 0.005,-0.011 0.011,-0.011 h 0.084 c 0.006,0 0.011,0.005 0.011,0.011 v 0.031 c 0,0.006 0.005,0.011 0.011,0.011 h 0.097 c 0.006,0 0.011,-0.005 0.011,-0.011 v -0.146 c 0,-0.006 -0.005,-0.011 -0.011,-0.011 H 0.011 C 0.005,-0.618 0,-0.613 0,-0.607 Z"
   style="fill:#ffffff;fill-rule:nonzero"
   id="path25" />
        </g>
    </g>
</svg>
